<svg width="125" height="92" viewBox="0 0 125 92" fill="none" xmlns="http://www.w3.org/2000/svg">
<path fill-rule="evenodd" clip-rule="evenodd" d="M26.864 59.7415C21.6507 60.8455 18.216 61.5508 16.56 61.8575C16.2533 61.9188 15.824 61.9495 15.272 61.9495C12.6347 61.9495 11.316 60.4468 11.316 57.4415C11.316 56.4861 11.382 55.5528 11.5141 54.6415H0.0984689C0.0963121 54.6548 0.0941558 54.6681 0.0920002 54.6815C0.0306667 54.9881 0 55.4788 0 56.1535C0 57.6868 0.368 59.1281 1.104 60.4775C1.90133 61.7655 3.00533 63.0535 4.416 64.3415C8.15733 67.8375 12.972 69.5855 18.86 69.5855C20.516 69.5855 22.1413 69.4015 23.736 69.0335C25.392 68.7268 27.2627 68.2668 29.348 67.6535L31.832 67.0095C32.0773 66.9481 32.292 66.7641 32.476 66.4575C32.7213 66.1508 32.936 65.9361 33.12 65.8135C34.592 64.7095 35.5733 63.9121 36.064 63.4215C36.5547 62.9308 36.8 62.4401 36.8 61.9495C36.8 61.5201 36.524 60.9988 35.972 60.3855C35.42 59.7721 34.7453 59.0668 33.948 58.2695L26.864 59.7415ZM4.70342 34.6415C6.05296 29.9659 7.95049 23.5819 10.396 15.4895C11.132 12.8521 12.2973 8.89612 13.892 3.62145C14.3213 2.21079 14.904 1.22946 15.64 0.677456C16.4373 0.125456 17.572 -0.0892113 19.044 0.0334538C19.3507 0.0334538 19.6267 0.06412 19.872 0.125453C20.1787 0.186785 20.4853 0.217451 20.792 0.217451C24.5947 0.524121 26.496 2.36412 26.496 5.73745C26.496 6.59612 26.3733 7.48546 26.128 8.40546C25.6373 10.3681 24.7173 13.0055 23.368 16.3175C20.9225 22.5369 18.7519 28.6449 16.8563 34.6415H4.70342ZM85.4282 54.6415C85.7854 55.9716 85.9898 56.8436 86.0416 57.2575C86.3482 59.5881 87.1762 61.3975 88.5256 62.6855C89.8749 63.9735 91.7456 65.1081 94.1376 66.0895C94.8736 66.3961 95.5176 66.5495 96.0696 66.5495C97.2349 66.5495 98.1856 65.9975 98.9216 64.8935C100.516 62.9308 101.804 61.1521 102.786 59.5575C103.8 58.0059 104.582 56.3672 105.132 54.6415H85.4282ZM81.2373 54.6415L78.5896 57.6255L76.3816 60.0175C73.3762 63.2681 71.1376 65.6601 69.6656 67.1935C69.0522 67.7455 68.3469 68.2055 67.5496 68.5735C66.7522 68.9415 66.0469 69.0948 65.4336 69.0335C64.1456 68.7881 63.0109 68.2055 62.0296 67.2855C61.0482 66.4268 60.4042 65.3228 60.0976 63.9735C59.3889 60.8349 58.6895 57.7243 57.9993 54.6415H81.2373ZM53.5666 34.6415H62.2946C61.5105 30.5492 60.9314 27.2319 60.5576 24.6895C60.2509 22.5428 59.4842 20.7948 58.2576 19.4455C57.0309 18.0961 55.4362 16.7161 53.4736 15.3055C53.0442 14.9988 52.5229 14.8455 51.9096 14.8455C51.3576 14.8455 50.8976 14.9375 50.5296 15.1215C48.4442 15.7961 47.2789 17.0535 47.0336 18.8935C46.9722 19.3228 46.9416 19.9361 46.9416 20.7335C46.9416 22.5735 47.5856 23.8615 48.8736 24.5975C50.0389 25.2721 50.8976 26.1001 51.4496 27.0815C52.0016 28.0628 52.4309 29.3201 52.7376 30.8535C53.0122 32.111 53.2885 33.3737 53.5666 34.6415ZM81.94 34.6415H93.2118C93.656 33.2952 93.9646 32.2472 94.1376 31.4975L89.1696 24.4135C87.6362 26.3761 85.6736 29.1361 83.2816 32.6935C82.8273 33.3615 82.3801 34.0109 81.94 34.6415ZM102.2 34.6415H112.053C112.384 33.8025 112.698 33.0305 112.998 32.3255C114.531 28.5228 116.524 24.1681 118.978 19.2615C119.407 18.4028 119.591 18.0961 119.53 18.3415C119.53 18.5255 119.898 17.7895 120.634 16.1335C120.879 15.5815 121.094 14.8761 121.278 14.0175C121.462 13.1588 121.983 11.5948 122.842 9.32546C123.762 7.05612 124.283 5.27745 124.406 3.98945C124.59 2.70145 124.068 2.11879 122.842 2.24145C121.615 2.30279 120.634 2.85479 119.898 3.89745C112.59 14.2283 106.691 24.4763 102.2 34.6415Z" fill="white"/>
<path d="M8.2299 50.5495C8.6079 50.4795 9.3919 50.3185 10.5819 50.0665L12.1989 49.7305C12.3809 49.9125 12.5349 50.0735 12.6609 50.2135C12.7869 50.3535 12.8499 50.4725 12.8499 50.5705C12.8499 50.6825 12.7939 50.7945 12.6819 50.9065C12.5699 51.0185 12.3459 51.2005 12.0099 51.4525C11.9679 51.4805 11.9189 51.5295 11.8629 51.5995C11.8209 51.6695 11.7719 51.7115 11.7159 51.7255L11.1489 51.8725C10.6729 52.0125 10.2459 52.1175 9.8679 52.1875C9.5039 52.2715 9.1329 52.3135 8.7549 52.3135C7.4109 52.3135 6.3119 51.9145 5.4579 51.1165C5.1359 50.8225 4.8839 50.5285 4.7019 50.2345C4.5339 49.9265 4.4499 49.5975 4.4499 49.2475C4.4499 49.0935 4.4569 48.9815 4.4709 48.9115C4.6949 47.5255 4.9469 46.3495 5.2269 45.3835C5.5209 44.3195 6.0529 42.5135 6.8229 39.9655C6.9909 39.3635 7.2569 38.4605 7.6209 37.2565C7.7189 36.9345 7.8519 36.7105 8.0199 36.5845C8.2019 36.4585 8.4609 36.4095 8.7969 36.4375C8.8669 36.4375 8.9299 36.4445 8.9859 36.4585C9.0559 36.4725 9.1259 36.4795 9.1959 36.4795C10.0639 36.5495 10.4979 36.9695 10.4979 37.7395C10.4979 37.9355 10.4699 38.1385 10.4139 38.3485C10.3019 38.7965 10.0919 39.3985 9.7839 40.1545C8.6499 43.0385 7.7749 45.8175 7.1589 48.4915C7.0749 48.8275 7.0329 49.1775 7.0329 49.5415C7.0329 50.2275 7.3339 50.5705 7.9359 50.5705C8.0619 50.5705 8.1599 50.5635 8.2299 50.5495ZM15.9151 42.8215C16.2651 42.9195 16.5101 43.0385 16.6501 43.1785C16.8041 43.3185 16.8811 43.5075 16.8811 43.7455C16.8811 43.8575 16.8601 44.0045 16.8181 44.1865C16.6641 44.8165 16.5801 45.4465 16.5661 46.0765C16.5521 46.7905 16.6641 47.4485 16.9021 48.0505C16.9861 48.2605 17.0631 48.4145 17.1331 48.5125C17.2171 48.5965 17.3151 48.6385 17.4271 48.6385C17.5671 48.6385 17.7491 48.5125 17.9731 48.2605C18.4911 47.6445 18.8761 47.0285 19.1281 46.4125C19.3801 45.7965 19.5341 45.1595 19.5901 44.5015C19.6321 44.0675 19.7021 43.7945 19.8001 43.6825C19.8561 43.6265 19.9471 43.5915 20.0731 43.5775C20.1991 43.5635 20.3811 43.5565 20.6191 43.5565C20.9971 43.5845 21.2561 43.6195 21.3961 43.6615C21.5501 43.7035 21.6551 43.7735 21.7111 43.8715C21.7671 43.9695 21.7951 44.1305 21.7951 44.3545L21.7741 45.3415C21.7741 45.5515 21.7671 45.8595 21.7531 46.2655C21.7111 47.5255 21.6761 48.4635 21.6481 49.0795C21.6341 49.5695 21.4871 50.1855 21.2071 50.9275C21.1791 50.9695 21.1021 51.0325 20.9761 51.1165C20.8501 51.1865 20.7381 51.2285 20.6401 51.2425C20.6121 51.2425 20.5491 51.2005 20.4511 51.1165C20.3671 51.0185 20.3041 50.9345 20.2621 50.8645C20.1641 50.6405 20.0521 50.3395 19.9261 49.9615L19.7581 49.5625L19.7161 49.4365L19.6531 49.4995L19.3171 49.7095C19.1491 49.8495 18.9671 49.9615 18.7711 50.0455C18.4491 50.2415 18.0641 50.3395 17.6161 50.3395C17.0561 50.3395 16.5241 50.1855 16.0201 49.8775C15.5161 49.5555 15.1171 49.1215 14.8231 48.5755C14.3471 47.7355 14.1091 46.7625 14.1091 45.6565C14.1091 45.0965 14.1861 44.3895 14.3401 43.5355C14.3681 43.3255 14.5011 43.1435 14.7391 42.9895C14.9491 42.8355 15.1941 42.7585 15.4741 42.7585C15.6141 42.7585 15.7611 42.7795 15.9151 42.8215ZM29.9769 48.3025C30.3689 48.0645 30.6419 47.9455 30.7959 47.9455C30.9219 47.9455 31.0339 48.0015 31.1319 48.1135C31.2439 48.2255 31.3909 48.4215 31.5729 48.7015C31.0689 49.4015 30.4599 49.9685 29.7459 50.4025C29.0319 50.8225 28.2129 51.1585 27.2889 51.4105C27.1069 51.4525 26.9249 51.4735 26.7429 51.4735C26.2669 51.4735 25.7839 51.3405 25.2939 51.0745C24.8179 50.7945 24.4189 50.4375 24.0969 50.0035C23.7749 49.5555 23.5999 49.0865 23.5719 48.5965C23.5439 48.2325 23.5299 47.9665 23.5299 47.7985C23.5299 46.3145 23.9219 44.9775 24.7059 43.7875C25.0139 43.3115 25.3709 42.9615 25.7769 42.7375C26.1829 42.5135 26.6029 42.4015 27.0369 42.4015C27.5129 42.4015 27.9609 42.5275 28.3809 42.7795C28.8149 43.0175 29.1509 43.3395 29.3889 43.7455C29.5009 43.9415 29.5569 44.1025 29.5569 44.2285C29.5569 44.4805 29.3399 44.6135 28.9059 44.6275C28.7939 44.6275 28.6609 44.6135 28.5069 44.5855C28.3669 44.5575 28.2619 44.5365 28.1919 44.5225C27.9959 44.4945 27.8489 44.4805 27.7509 44.4805C27.1349 44.4805 26.7149 44.8165 26.4909 45.4885C26.2249 46.2445 26.0289 46.8745 25.9029 47.3785C25.7769 47.8825 25.7139 48.3865 25.7139 48.8905C25.7139 49.2545 25.7699 49.5205 25.8819 49.6885C25.9939 49.8565 26.1689 49.9405 26.4069 49.9405C26.6309 49.9405 26.9529 49.8635 27.3729 49.7095C27.7089 49.5835 28.0589 49.4155 28.4229 49.2055C28.8009 48.9955 29.1649 48.7855 29.5149 48.5755L29.9769 48.3025ZM37.8258 42.3175C38.4698 42.3175 38.9948 42.5065 39.4008 42.8845C39.8208 43.2485 40.1078 43.7385 40.2618 44.3545C40.3458 44.6905 40.3738 45.0685 40.3458 45.4885C40.3318 45.7265 40.3178 46.0625 40.3038 46.4965C40.2898 46.8605 40.2408 47.3995 40.1568 48.1135C40.0728 48.8135 40.0238 49.3385 40.0098 49.6885C39.9958 49.9405 39.9888 50.3115 39.9888 50.8015L40.0098 52.5025C39.7438 52.6145 39.5058 52.6705 39.2958 52.6705C39.0858 52.6705 38.8688 52.6005 38.6448 52.4605C38.4908 52.3485 38.3858 52.2785 38.3298 52.2505C38.2878 52.2225 38.2248 52.1035 38.1408 51.8935L37.9728 51.4945L37.8678 51.0115C37.0838 51.1795 36.6218 51.2775 36.4818 51.3055C36.2858 51.3195 36.1318 51.3265 36.0198 51.3265C35.5018 51.3265 34.9978 51.2005 34.5078 50.9485C34.0318 50.6965 33.6468 50.3465 33.3528 49.8985C33.0728 49.4505 32.9258 48.9675 32.9118 48.4495C32.8978 47.9595 33.0728 47.5675 33.4368 47.2735C34.2068 46.6575 34.9558 46.3495 35.6838 46.3495C36.0478 46.3495 36.4328 46.4335 36.8388 46.6015C37.0488 46.6855 37.4968 46.8745 38.1828 47.1685L38.2668 46.5805C38.3508 46.0765 38.3928 45.6705 38.3928 45.3625C38.3928 44.9005 38.2878 44.4665 38.0778 44.0605C37.8678 43.9905 37.7138 43.9695 37.6158 43.9975C37.2518 44.0535 36.8878 44.1305 36.5238 44.2285C36.1598 44.3125 35.6628 44.3545 35.0328 44.3545C34.8648 44.3545 34.6968 44.2915 34.5288 44.1655C34.3608 44.0255 34.2838 43.8715 34.2978 43.7035C34.3398 43.4795 34.4658 43.2275 34.6758 42.9475C34.8018 42.7935 34.9768 42.7025 35.2008 42.6745C35.4668 42.6325 35.6838 42.6045 35.8518 42.5905C36.7198 42.4085 37.3778 42.3175 37.8258 42.3175ZM36.0408 49.6045C36.3768 49.5065 36.6568 49.3945 36.8808 49.2685C37.1048 49.1285 37.3008 48.9255 37.4688 48.6595C36.9648 48.2675 36.5798 47.9945 36.3138 47.8405C36.0478 47.6865 35.7888 47.6095 35.5368 47.6095C35.4388 47.6095 35.3198 47.6305 35.1798 47.6725C35.0398 47.7145 34.9348 47.7775 34.8648 47.8615C34.7388 48.0155 34.6758 48.2325 34.6758 48.5125C34.6758 48.7645 34.7248 48.9815 34.8228 49.1635C34.9348 49.3175 35.0748 49.4365 35.2428 49.5205C35.4108 49.6045 35.5858 49.6465 35.7678 49.6465C35.8238 49.6465 35.9148 49.6325 36.0408 49.6045ZM44.3589 52.1035C43.1829 52.1035 42.4339 51.5995 42.1119 50.5915C42.2239 50.5915 42.3709 50.5985 42.5529 50.6125C42.7489 50.6125 42.9099 50.6265 43.0359 50.6545C43.2319 50.6825 43.3719 50.6965 43.4559 50.6965C44.0859 50.6965 44.6109 50.4165 45.0309 49.8565C45.3249 49.4505 45.4719 49.0375 45.4719 48.6175C45.4719 48.3375 45.4019 48.0645 45.2619 47.7985C44.9539 47.2525 44.5759 46.6505 44.1279 45.9925C43.8339 45.5585 43.5679 45.1455 43.3299 44.7535C43.0499 44.3055 42.9099 43.8085 42.9099 43.2625C42.9099 42.7585 43.0499 42.3175 43.3299 41.9395C43.6239 41.5475 44.0509 41.3025 44.6109 41.2045L45.2829 41.0785C46.0109 40.9385 46.5569 40.8685 46.9209 40.8685C47.5229 40.8685 48.0549 41.0085 48.5169 41.2885C48.6149 41.3585 48.7129 41.4845 48.8109 41.6665C48.9229 41.8345 49.0069 41.9675 49.0629 42.0655C48.9649 42.1075 48.8249 42.1775 48.6429 42.2755C48.4749 42.3595 48.3279 42.4085 48.2019 42.4225C48.0059 42.4505 47.7119 42.4645 47.3199 42.4645C46.9419 42.4645 46.6549 42.4715 46.4589 42.4855C46.0109 42.5275 45.6539 42.6815 45.3879 42.9475C45.1359 43.1995 45.0099 43.5075 45.0099 43.8715C45.0099 44.1515 45.0939 44.4385 45.2619 44.7325C45.6399 45.3625 46.1649 46.0835 46.8369 46.8955C47.3409 47.5255 47.5929 48.1765 47.5929 48.8485C47.5929 49.2125 47.5089 49.5975 47.3409 50.0035C46.7669 51.4035 45.7729 52.1035 44.3589 52.1035ZM64.3056 49.4995C64.2916 49.3875 64.2286 49.1285 64.1166 48.7225L63.9276 48.0925L62.6046 49.5835L62.1006 50.1295C61.4146 50.8715 60.9036 51.4175 60.5676 51.7675C60.4276 51.8935 60.2666 51.9985 60.0846 52.0825C59.9026 52.1665 59.7416 52.2015 59.6016 52.1875C59.3076 52.1315 59.0486 51.9985 58.8246 51.7885C58.6006 51.5925 58.4536 51.3405 58.3836 51.0325C57.7956 48.4285 57.2356 45.9085 56.7036 43.4725C56.6336 43.1225 56.5356 42.8355 56.4096 42.6115C56.2836 42.3875 56.0876 42.1985 55.8216 42.0445C55.5276 41.8765 55.3806 41.5825 55.3806 41.1625C55.3806 40.9805 55.3876 40.8405 55.4016 40.7425C55.4576 40.3225 55.7236 40.0355 56.1996 39.8815C56.2836 39.8395 56.3886 39.8185 56.5146 39.8185C56.6546 39.8185 56.7736 39.8535 56.8716 39.9235C57.3196 40.2455 57.6836 40.5605 57.9636 40.8685C58.2436 41.1765 58.4186 41.5755 58.4886 42.0655C58.6286 43.0175 58.8946 44.4455 59.2866 46.3495L59.5596 47.6515C59.5736 47.7075 59.6016 47.7775 59.6436 47.8615C59.6996 47.9315 59.7486 48.0015 59.7906 48.0715C60.5606 47.6095 61.2186 47.0635 61.7646 46.4335C62.3246 45.7895 62.9616 44.9425 63.6756 43.8925C64.2216 43.0805 64.6696 42.4505 65.0196 42.0025L66.1536 43.6195C66.1116 43.8015 66.0346 44.0605 65.9226 44.3965C65.7406 45.0545 65.5936 45.6215 65.4816 46.0975C65.3836 46.5595 65.3626 46.9655 65.4186 47.3155C65.4746 47.6655 65.6146 48.0015 65.8386 48.3235C66.0346 48.2815 66.1816 48.2115 66.2796 48.1135C66.3776 48.0015 66.4476 47.8965 66.4896 47.7985C66.5456 47.6865 66.5876 47.6095 66.6156 47.5675C66.8116 47.2035 67.0636 46.6295 67.3716 45.8455C68.4496 43.0315 70.0036 40.1895 72.0336 37.3195C72.2016 37.0815 72.4256 36.9555 72.7056 36.9415C72.9856 36.9135 73.1046 37.0465 73.0626 37.3405C73.0346 37.6345 72.9156 38.0405 72.7056 38.5585C72.5096 39.0765 72.3906 39.4335 72.3486 39.6295C72.3066 39.8255 72.2576 39.9865 72.2016 40.1125C72.0336 40.4905 71.9496 40.6585 71.9496 40.6165C71.9636 40.5605 71.9216 40.6305 71.8236 40.8265C71.2636 41.9465 70.8086 42.9405 70.4586 43.8085C70.0666 44.7325 69.5556 46.1605 68.9256 48.0925L68.6736 48.8695C68.5476 49.2755 68.3656 49.6605 68.1276 50.0245C67.9036 50.3885 67.6096 50.7945 67.2456 51.2425C67.0776 51.4945 66.8606 51.6205 66.5946 51.6205C66.4686 51.6205 66.3216 51.5855 66.1536 51.5155C65.6076 51.2915 65.1806 51.0325 64.8726 50.7385C64.5646 50.4445 64.3756 50.0315 64.3056 49.4995ZM79.5571 48.3655C79.4171 48.4495 79.2141 48.4915 78.9481 48.4915C78.8501 48.4915 78.7311 48.4845 78.5911 48.4705C78.4511 48.4565 78.3321 48.4565 78.2341 48.4705C78.3461 48.9325 78.6121 49.3105 79.0321 49.6045C79.4521 49.8845 79.9211 50.0245 80.4391 50.0245C80.8871 50.0245 81.2861 49.9265 81.6361 49.7305C82.1541 49.4645 82.6021 49.1495 82.9801 48.7855C83.2461 48.5195 83.4981 48.3865 83.7361 48.3865C83.8901 48.3865 84.0231 48.4635 84.1351 48.6175C84.2471 48.7995 84.3031 49.0235 84.3031 49.2895C84.3031 49.5695 84.2471 49.7865 84.1351 49.9405C83.7711 50.5005 83.2951 50.8855 82.7071 51.0955C82.1331 51.3055 81.4611 51.4105 80.6911 51.4105C79.8931 51.4105 79.1231 51.2355 78.3811 50.8855C77.6391 50.5355 77.0021 50.0595 76.4701 49.4575C75.9521 48.8415 75.6091 48.1625 75.4411 47.4205C75.3291 46.9865 75.2731 46.5595 75.2731 46.1395C75.2731 45.4815 75.4551 44.9495 75.8191 44.5435C76.1971 44.1375 76.7991 43.7525 77.6251 43.3885C78.3811 43.0665 79.0811 42.9055 79.7251 42.9055C80.1871 42.9055 80.6351 42.9755 81.0691 43.1155C82.4131 43.5355 83.0851 44.1095 83.0851 44.8375C83.0851 45.2995 82.8121 45.8595 82.2661 46.5175C82.0001 46.8255 81.6851 47.0985 81.3211 47.3365C80.9571 47.5745 80.6001 47.7915 80.2501 47.9875C79.9141 48.1695 79.6831 48.2955 79.5571 48.3655ZM80.4391 44.4805C80.4251 44.4105 80.3691 44.3545 80.2711 44.3125C80.1871 44.2565 80.1381 44.2215 80.1241 44.2075C79.7461 44.1795 79.3611 44.2915 78.9691 44.5435C78.5771 44.7815 78.2481 45.0895 77.9821 45.4675C77.7301 45.8455 77.6041 46.2095 77.6041 46.5595L77.6251 46.7275C77.6391 46.7835 77.7091 46.8535 77.8351 46.9375C77.9751 47.0215 78.0591 47.0495 78.0871 47.0215C79.0811 46.2795 79.8301 45.6845 80.3341 45.2365C80.4181 45.1525 80.4601 44.9985 80.4601 44.7745C80.4601 44.6345 80.4531 44.5365 80.4391 44.4805ZM88.2893 42.7375C88.3313 42.8775 88.3383 43.0945 88.3103 43.3885L88.0583 45.8665C88.1283 45.8105 88.2333 45.6145 88.3733 45.2785C88.5133 44.9285 88.6463 44.6485 88.7723 44.4385C88.8983 44.2145 88.9963 44.0675 89.0663 43.9975C89.7243 43.3675 90.4663 42.9895 91.2923 42.8635C92.1183 42.7375 93.0283 42.6815 94.0223 42.6955C94.1203 42.6955 94.2253 42.7375 94.3373 42.8215C94.4633 42.8915 94.5263 42.9545 94.5263 43.0105C94.5263 43.0525 94.4843 43.1295 94.4003 43.2415C94.3163 43.3395 94.2393 43.4025 94.1693 43.4305C93.3293 43.7105 92.5873 44.0325 91.9433 44.3965C91.3133 44.7605 90.7673 45.2365 90.3053 45.8245C89.2133 47.2105 88.5833 48.6385 88.4153 50.1085C88.3733 50.5005 88.2543 50.7665 88.0583 50.9065C87.8623 51.0325 87.5893 51.0955 87.2393 51.0955C86.8473 51.0955 86.4973 50.9275 86.1893 50.5915C85.8813 50.2555 85.7273 49.8845 85.7273 49.4785C85.7413 47.9945 85.7483 45.7685 85.7483 42.8005C85.7483 42.3945 85.8393 42.1145 86.0213 41.9605C86.2033 41.7925 86.5323 41.7085 87.0083 41.7085C87.3583 41.7085 87.6523 41.8065 87.8903 42.0025C88.1423 42.1985 88.2753 42.4435 88.2893 42.7375ZM97.9855 43.4515C98.1115 43.4375 98.2165 43.4375 98.3005 43.4515C98.3845 43.4515 98.4615 43.4515 98.5315 43.4515C98.6295 43.4375 98.7765 43.4305 98.9725 43.4305C99.9245 43.4305 100.863 43.7035 101.787 44.2495C102.193 44.5015 102.396 44.7675 102.396 45.0475C102.396 45.3555 102.186 45.6285 101.766 45.8665C101.416 46.0765 101.052 46.3215 100.674 46.6015C100.002 47.0495 99.4275 47.3995 98.9515 47.6515C98.4895 47.9035 97.9785 48.0785 97.4185 48.1765C97.3345 48.2045 97.2435 48.2815 97.1455 48.4075C97.0615 48.5195 97.0265 48.6035 97.0405 48.6595C97.0685 48.7435 97.1175 48.9185 97.1875 49.1845C97.2575 49.4365 97.3345 49.6535 97.4185 49.8355C97.5165 50.0035 97.6285 50.1435 97.7545 50.2555C97.8945 50.3675 98.1045 50.4235 98.3845 50.4235C98.6645 50.4235 98.9235 50.3815 99.1615 50.2975C100.002 49.9055 100.8 49.4155 101.556 48.8275C101.78 48.6735 101.976 48.5965 102.144 48.5965C102.354 48.5965 102.578 48.7085 102.816 48.9325C102.984 49.0865 103.068 49.2475 103.068 49.4155C103.068 49.5975 102.935 49.8215 102.669 50.0875C101.479 51.2495 100.212 51.8305 98.8675 51.8305C98.5035 51.8305 98.0555 51.7605 97.5235 51.6205C96.6275 51.3965 95.9415 50.8995 95.4655 50.1295C94.9895 49.3595 94.7515 48.4775 94.7515 47.4835C94.7515 47.1755 94.7725 46.8815 94.8145 46.6015C94.8285 46.5035 94.8565 46.3005 94.8985 45.9925C94.9545 45.6705 95.0385 45.4045 95.1505 45.1945C95.6825 44.1445 96.6275 43.5635 97.9855 43.4515ZM99.2035 44.9635C98.9515 44.8795 98.7275 44.8375 98.5315 44.8375C98.2095 44.8375 97.9575 44.9355 97.7755 45.1315C97.5935 45.3275 97.4465 45.6215 97.3345 46.0135C97.6705 46.0555 98.0275 45.9715 98.4055 45.7615C98.7975 45.5375 99.0635 45.2715 99.2035 44.9635ZM108.833 47.4625C109.085 46.4405 109.239 45.6495 109.295 45.0895C109.365 44.5155 109.484 44.1095 109.652 43.8715C109.82 43.6335 110.1 43.5145 110.492 43.5145C111.08 43.5145 111.549 43.6475 111.899 43.9135C112.249 44.1795 112.424 44.5435 112.424 45.0055C112.424 45.0615 112.41 45.1735 112.382 45.3415C112.172 46.4895 111.829 47.6865 111.353 48.9325C110.597 50.9765 109.785 53.0205 108.917 55.0645C108.651 55.6665 108.252 56.2475 107.72 56.8075C107.594 56.9475 107.475 57.0175 107.363 57.0175C107.195 57.0175 107.069 56.8355 106.985 56.4715C106.901 56.0935 106.859 55.7295 106.859 55.3795C106.859 54.9735 106.901 54.5675 106.985 54.1615C107.069 53.7695 107.188 53.2935 107.342 52.7335C107.482 52.2015 107.58 51.8025 107.636 51.5365C107.692 51.2565 107.72 51.0605 107.72 50.9485C107.72 50.5145 107.51 50.1575 107.09 49.8775C106.362 49.4015 105.809 48.7995 105.431 48.0715C105.067 47.3295 104.773 46.4475 104.549 45.4255C104.535 45.3835 104.528 45.3205 104.528 45.2365C104.528 44.9845 104.626 44.7675 104.822 44.5855C105.018 44.4035 105.242 44.3125 105.494 44.3125C105.648 44.3125 105.781 44.3405 105.893 44.3965C106.257 44.5505 106.544 44.7465 106.754 44.9845C106.964 45.2085 107.118 45.5095 107.216 45.8875C107.3 46.2375 107.426 46.6015 107.594 46.9795C107.762 47.3575 107.86 47.5885 107.888 47.6725L108.182 48.3655H108.644L108.833 47.4625Z" fill="white"/>
<path d="M7.834 79.466C7.834 79.466 7.9 79.664 8.032 80.06L8.266 80.744L9.256 78.764C9.544 78.14 9.832 77.606 10.12 77.162C10.408 76.718 10.792 76.214 11.272 75.65C11.416 75.482 11.578 75.356 11.758 75.272C11.95 75.176 12.142 75.128 12.334 75.128C12.598 75.128 12.844 75.206 13.072 75.362C13.312 75.518 13.492 75.74 13.612 76.028C13.648 76.124 13.708 76.256 13.792 76.424C13.936 76.748 14.038 77.018 14.098 77.234C14.158 77.438 14.194 77.702 14.206 78.026C14.218 78.506 14.266 79.124 14.35 79.88L14.44 80.924C14.692 80.708 14.89 80.492 15.034 80.276C15.178 80.048 15.292 79.802 15.376 79.538C15.544 79.094 15.73 78.548 15.934 77.9L16.474 76.28C16.666 75.728 16.906 75.284 17.194 74.948C17.494 74.612 17.896 74.396 18.4 74.3C18.496 74.276 18.604 74.264 18.724 74.264C18.82 74.264 18.886 74.282 18.922 74.318C18.958 74.354 18.994 74.42 19.03 74.516C19.066 74.6 19.114 74.696 19.174 74.804C19.306 75.032 19.372 75.236 19.372 75.416C19.372 75.668 19.24 75.926 18.976 76.19C18.58 76.574 18.274 76.994 18.058 77.45C17.854 77.906 17.62 78.518 17.356 79.286C17.248 79.61 17.074 80.18 16.834 80.996C16.51 82.172 16.24 83.024 16.024 83.552C15.892 83.876 15.772 84.104 15.664 84.236C15.568 84.356 15.448 84.416 15.304 84.416C15.148 84.416 14.884 84.314 14.512 84.11C13.9 83.774 13.414 83.234 13.054 82.49C12.694 81.734 12.478 80.948 12.406 80.132L12.388 79.736C12.34 79.088 12.292 78.524 12.244 78.044C11.992 78.332 11.764 78.656 11.56 79.016C11.368 79.376 11.14 79.82 10.876 80.348C10.66 80.804 10.522 81.086 10.462 81.194C10.258 81.542 9.988 82.166 9.652 83.066C9.328 83.906 9.106 84.434 8.986 84.65C8.794 84.686 8.614 84.704 8.446 84.704C8.086 84.704 7.798 84.596 7.582 84.38C7.366 84.164 7.186 83.816 7.042 83.336C6.766 82.436 6.49 81.458 6.214 80.402C5.95 79.346 5.752 78.404 5.62 77.576C5.584 77.336 5.518 77.078 5.422 76.802C5.326 76.526 5.266 76.352 5.242 76.28L5.062 75.758C4.954 75.446 4.9 75.218 4.9 75.074C4.9 74.942 4.942 74.822 5.026 74.714C5.122 74.606 5.278 74.474 5.494 74.318C6.334 74.558 6.856 75.122 7.06 76.01C7.156 76.394 7.288 76.97 7.456 77.738L7.834 79.466ZM23.803 83.192C23.683 83.264 23.509 83.3 23.281 83.3C23.197 83.3 23.095 83.294 22.975 83.282C22.855 83.27 22.753 83.27 22.669 83.282C22.765 83.678 22.993 84.002 23.353 84.254C23.713 84.494 24.115 84.614 24.559 84.614C24.943 84.614 25.285 84.53 25.585 84.362C26.029 84.134 26.413 83.864 26.737 83.552C26.965 83.324 27.181 83.21 27.385 83.21C27.517 83.21 27.631 83.276 27.727 83.408C27.823 83.564 27.871 83.756 27.871 83.984C27.871 84.224 27.823 84.41 27.727 84.542C27.415 85.022 27.007 85.352 26.503 85.532C26.011 85.712 25.435 85.802 24.775 85.802C24.091 85.802 23.431 85.652 22.795 85.352C22.159 85.052 21.613 84.644 21.157 84.128C20.713 83.6 20.419 83.018 20.275 82.382C20.179 82.01 20.131 81.644 20.131 81.284C20.131 80.72 20.287 80.264 20.599 79.916C20.923 79.568 21.439 79.238 22.147 78.926C22.795 78.65 23.395 78.512 23.947 78.512C24.343 78.512 24.727 78.572 25.099 78.692C26.251 79.052 26.827 79.544 26.827 80.168C26.827 80.564 26.593 81.044 26.125 81.608C25.897 81.872 25.627 82.106 25.315 82.31C25.003 82.514 24.697 82.7 24.397 82.868C24.109 83.024 23.911 83.132 23.803 83.192ZM24.559 79.862C24.547 79.802 24.499 79.754 24.415 79.718C24.343 79.67 24.301 79.64 24.289 79.628C23.965 79.604 23.635 79.7 23.299 79.916C22.963 80.12 22.681 80.384 22.453 80.708C22.237 81.032 22.129 81.344 22.129 81.644L22.147 81.788C22.159 81.836 22.219 81.896 22.327 81.968C22.447 82.04 22.519 82.064 22.543 82.04C23.395 81.404 24.037 80.894 24.469 80.51C24.541 80.438 24.577 80.306 24.577 80.114C24.577 79.994 24.571 79.91 24.559 79.862ZM31.0889 79.124C31.1009 79.34 31.1369 79.586 31.1969 79.862L31.2689 80.222L31.6829 79.934C32.0909 79.646 32.4089 79.442 32.6369 79.322C33.1889 79.022 33.7529 78.872 34.3289 78.872C35.0489 78.872 35.6489 79.118 36.1289 79.61C36.6209 80.09 36.8669 80.762 36.8669 81.626C36.8669 82.346 36.6809 83.012 36.3089 83.624C35.9489 84.236 35.4509 84.77 34.8149 85.226C34.1189 85.742 33.4049 86 32.6729 86C32.0369 86 31.4069 85.796 30.7829 85.388C30.6269 85.316 30.4829 85.238 30.3509 85.154C30.0749 84.986 29.8469 84.764 29.6669 84.488C29.4869 84.2 29.3969 83.828 29.3969 83.372C29.3969 83.132 29.4149 82.868 29.4509 82.58C29.4629 82.472 29.4449 82.31 29.3969 82.094C29.3969 82.058 29.3849 81.998 29.3609 81.914C29.3489 81.83 29.3429 81.758 29.3429 81.698L29.1989 77.576C29.1629 77.156 29.0909 76.742 28.9829 76.334C28.9589 76.262 28.9469 76.16 28.9469 76.028C28.9469 75.74 29.0429 75.5 29.2349 75.308C29.4269 75.116 29.6789 75.02 29.9909 75.02C30.3749 75.02 30.6449 75.146 30.8009 75.398C30.9569 75.65 31.0349 75.968 31.0349 76.352L31.0529 77.27C31.0529 77.69 31.0649 78.308 31.0889 79.124ZM33.9329 80.366C32.1569 81.11 31.3169 82.58 31.4129 84.776C31.5809 84.896 31.7429 84.956 31.8989 84.956C32.0069 84.956 32.1209 84.932 32.2409 84.884C32.3609 84.824 32.4629 84.77 32.5469 84.722C32.6429 84.662 32.7269 84.614 32.7989 84.578C33.3629 84.278 33.8369 83.804 34.2209 83.156C34.6169 82.496 34.8149 81.854 34.8149 81.23C34.8149 81.002 34.7909 80.81 34.7429 80.654C34.6589 80.342 34.5269 80.186 34.3469 80.186C34.2629 80.222 34.1249 80.282 33.9329 80.366ZM50.0076 83.894C50.0316 84.098 50.1216 84.362 50.2776 84.686C50.3016 84.746 50.3256 84.812 50.3496 84.884C50.3856 84.956 50.4216 85.04 50.4576 85.136C50.0496 85.364 49.7256 85.478 49.4856 85.478C49.3056 85.478 49.1376 85.424 48.9816 85.316C48.8256 85.196 48.6516 85.01 48.4596 84.758C48.3156 84.59 48.1956 84.506 48.0996 84.506C48.0036 84.506 47.9016 84.584 47.7936 84.74C47.5536 85.1 47.2536 85.37 46.8936 85.55C46.5456 85.73 46.1736 85.82 45.7776 85.82C45.3336 85.82 44.9016 85.718 44.4816 85.514C44.0736 85.298 43.7556 85.01 43.5276 84.65C43.2876 84.278 43.1676 83.726 43.1676 82.994C43.1676 82.466 43.2396 81.932 43.3836 81.392C43.5276 80.852 43.7316 80.408 43.9956 80.06C44.2836 79.664 44.6256 79.352 45.0216 79.124C45.4176 78.884 45.8556 78.764 46.3356 78.764C46.4916 78.764 46.6116 78.77 46.6956 78.782C46.7316 78.794 46.7856 78.8 46.8576 78.8C47.1336 78.8 47.2716 78.668 47.2716 78.404L47.2536 78.26C47.0856 76.88 46.9356 75.866 46.8036 75.218C46.7916 75.158 46.7736 75.062 46.7496 74.93C46.7256 74.798 46.7136 74.69 46.7136 74.606C46.7136 74.438 46.7496 74.294 46.8216 74.174C46.8936 74.042 47.0196 73.934 47.1996 73.85C47.2716 73.814 47.3556 73.796 47.4516 73.796C47.7036 73.796 47.9676 73.88 48.2436 74.048C48.5196 74.204 48.6816 74.384 48.7296 74.588C48.9096 75.332 49.0776 76.298 49.2336 77.486L49.5576 80.222C49.7496 81.854 49.8996 83.078 50.0076 83.894ZM45.2016 81.644C44.9976 82.232 44.8956 82.772 44.8956 83.264C44.8956 83.948 45.1356 84.452 45.6156 84.776C45.8076 84.668 45.9576 84.548 46.0656 84.416C46.1856 84.272 46.3236 84.068 46.4796 83.804L46.6776 83.462C46.9536 83.066 47.1336 82.622 47.2176 82.13C47.3136 81.638 47.3736 81.014 47.3976 80.258C47.4096 80.15 47.3856 80.03 47.3256 79.898C47.2776 79.754 47.2236 79.676 47.1636 79.664C47.0676 79.64 46.9056 79.67 46.6776 79.754C46.4496 79.826 46.3056 79.904 46.2456 79.988C45.9696 80.312 45.7476 80.594 45.5796 80.834C45.4236 81.074 45.2976 81.344 45.2016 81.644ZM54.4875 78.98C54.5955 78.968 54.6855 78.968 54.7575 78.98C54.8295 78.98 54.8955 78.98 54.9555 78.98C55.0395 78.968 55.1655 78.962 55.3335 78.962C56.1495 78.962 56.9535 79.196 57.7455 79.664C58.0935 79.88 58.2675 80.108 58.2675 80.348C58.2675 80.612 58.0875 80.846 57.7275 81.05C57.4275 81.23 57.1155 81.44 56.7915 81.68C56.2155 82.064 55.7235 82.364 55.3155 82.58C54.9195 82.796 54.4815 82.946 54.0015 83.03C53.9295 83.054 53.8515 83.12 53.7675 83.228C53.6955 83.324 53.6655 83.396 53.6775 83.444C53.7015 83.516 53.7435 83.666 53.8035 83.894C53.8635 84.11 53.9295 84.296 54.0015 84.452C54.0855 84.596 54.1815 84.716 54.2895 84.812C54.4095 84.908 54.5895 84.956 54.8295 84.956C55.0695 84.956 55.2915 84.92 55.4955 84.848C56.2155 84.512 56.8995 84.092 57.5475 83.588C57.7395 83.456 57.9075 83.39 58.0515 83.39C58.2315 83.39 58.4235 83.486 58.6275 83.678C58.7715 83.81 58.8435 83.948 58.8435 84.092C58.8435 84.248 58.7295 84.44 58.5015 84.668C57.4815 85.664 56.3955 86.162 55.2435 86.162C54.9315 86.162 54.5475 86.102 54.0915 85.982C53.3235 85.79 52.7355 85.364 52.3275 84.704C51.9195 84.044 51.7155 83.288 51.7155 82.436C51.7155 82.172 51.7335 81.92 51.7695 81.68C51.7815 81.596 51.8055 81.422 51.8415 81.158C51.8895 80.882 51.9615 80.654 52.0575 80.474C52.5135 79.574 53.3235 79.076 54.4875 78.98ZM55.5315 80.276C55.3155 80.204 55.1235 80.168 54.9555 80.168C54.6795 80.168 54.4635 80.252 54.3075 80.42C54.1515 80.588 54.0255 80.84 53.9295 81.176C54.2175 81.212 54.5235 81.14 54.8475 80.96C55.1835 80.768 55.4115 80.54 55.5315 80.276ZM63.3713 83.3C63.3833 83.324 63.5813 83.726 63.9653 84.506C64.1333 84.158 64.2593 83.708 64.3433 83.156C64.4393 82.592 64.4993 82.25 64.5233 82.13C64.5593 81.998 64.5893 81.89 64.6133 81.806C64.6373 81.722 64.6913 81.53 64.7753 81.23C64.8713 80.93 64.9733 80.66 65.0813 80.42C65.1653 80.216 65.2853 80.024 65.4413 79.844C65.6093 79.652 65.7833 79.526 65.9633 79.466C66.0713 79.43 66.1733 79.412 66.2693 79.412C66.4973 79.412 66.6773 79.496 66.8093 79.664C66.9533 79.832 67.0253 80.054 67.0253 80.33C67.0253 80.474 67.0073 80.618 66.9713 80.762C66.6953 81.842 66.2033 83.552 65.4953 85.892C65.3153 86.48 64.8953 86.744 64.2353 86.684C63.5753 86.624 63.0593 86.396 62.6873 86C62.3153 85.604 61.9673 85.046 61.6433 84.326C61.4993 84.014 61.3253 83.582 61.1213 83.03C61.0493 82.826 60.9293 82.52 60.7613 82.112C60.7133 82.016 60.6413 81.89 60.5453 81.734C60.4613 81.566 60.4013 81.422 60.3653 81.302C60.3413 81.254 60.2873 81.134 60.2033 80.942C60.1313 80.75 60.0953 80.588 60.0953 80.456C60.0953 80.408 60.1073 80.348 60.1313 80.276C60.1913 80.144 60.3413 80.036 60.5813 79.952C60.8333 79.856 61.0613 79.808 61.2653 79.808C61.6613 79.808 62.0153 80.138 62.3273 80.798C62.6393 81.458 62.8733 81.992 63.0293 82.4L63.3713 83.3ZM72.1076 83.192C71.9876 83.264 71.8136 83.3 71.5856 83.3C71.5016 83.3 71.3996 83.294 71.2796 83.282C71.1596 83.27 71.0576 83.27 70.9736 83.282C71.0696 83.678 71.2976 84.002 71.6576 84.254C72.0176 84.494 72.4196 84.614 72.8636 84.614C73.2476 84.614 73.5896 84.53 73.8896 84.362C74.3336 84.134 74.7176 83.864 75.0416 83.552C75.2696 83.324 75.4856 83.21 75.6896 83.21C75.8216 83.21 75.9356 83.276 76.0316 83.408C76.1276 83.564 76.1756 83.756 76.1756 83.984C76.1756 84.224 76.1276 84.41 76.0316 84.542C75.7196 85.022 75.3116 85.352 74.8076 85.532C74.3156 85.712 73.7396 85.802 73.0796 85.802C72.3956 85.802 71.7356 85.652 71.0996 85.352C70.4636 85.052 69.9176 84.644 69.4616 84.128C69.0176 83.6 68.7236 83.018 68.5796 82.382C68.4836 82.01 68.4356 81.644 68.4356 81.284C68.4356 80.72 68.5916 80.264 68.9036 79.916C69.2276 79.568 69.7436 79.238 70.4516 78.926C71.0996 78.65 71.6996 78.512 72.2516 78.512C72.6476 78.512 73.0316 78.572 73.4036 78.692C74.5556 79.052 75.1316 79.544 75.1316 80.168C75.1316 80.564 74.8976 81.044 74.4296 81.608C74.2016 81.872 73.9316 82.106 73.6196 82.31C73.3076 82.514 73.0016 82.7 72.7016 82.868C72.4136 83.024 72.2156 83.132 72.1076 83.192ZM72.8636 79.862C72.8516 79.802 72.8036 79.754 72.7196 79.718C72.6476 79.67 72.6056 79.64 72.5936 79.628C72.2696 79.604 71.9396 79.7 71.6036 79.916C71.2676 80.12 70.9856 80.384 70.7576 80.708C70.5416 81.032 70.4336 81.344 70.4336 81.644L70.4516 81.788C70.4636 81.836 70.5236 81.896 70.6316 81.968C70.7516 82.04 70.8236 82.064 70.8476 82.04C71.6996 81.404 72.3416 80.894 72.7736 80.51C72.8456 80.438 72.8816 80.306 72.8816 80.114C72.8816 79.994 72.8756 79.91 72.8636 79.862ZM79.3216 85.172C79.5616 84.884 79.7356 84.656 79.8436 84.488C79.9756 84.308 80.1136 84.218 80.2576 84.218C80.4016 84.218 80.5096 84.308 80.5816 84.488C80.7496 84.968 80.8336 85.346 80.8336 85.622C80.8336 85.742 80.8276 85.832 80.8156 85.892C80.7676 86.132 80.6296 86.3 80.4016 86.396C80.1856 86.492 79.9276 86.528 79.6276 86.504C79.5196 86.504 79.3336 86.504 79.0696 86.504C78.8176 86.504 78.5956 86.468 78.4036 86.396C78.2236 86.324 78.0616 86.204 77.9176 86.036C77.6056 85.664 77.4496 85.304 77.4496 84.956C77.4496 82.148 77.4376 80.036 77.4136 78.62L77.3956 75.452C77.3956 75.032 77.3536 74.648 77.2696 74.3C77.2576 74.24 77.2516 74.168 77.2516 74.084C77.2516 73.64 77.5516 73.418 78.1516 73.418C78.5476 73.418 78.8776 73.55 79.1416 73.814C79.4176 74.066 79.5436 74.402 79.5196 74.822C79.4836 75.458 79.4356 76.412 79.3756 77.684L79.2676 79.844C79.1716 81.884 79.1056 83.414 79.0696 84.434C79.0576 84.554 79.0636 84.686 79.0876 84.83C79.1116 84.974 79.1296 85.064 79.1416 85.1L79.3216 85.172ZM88.6011 79.898C88.7091 80.114 88.8051 80.36 88.8891 80.636C88.9851 80.9 89.0511 81.074 89.0871 81.158L89.2491 81.626C89.1051 82.31 88.9611 82.874 88.8171 83.318C88.6731 83.75 88.4631 84.158 88.1871 84.542C87.9111 84.914 87.5331 85.22 87.0531 85.46C86.6091 85.688 86.1351 85.802 85.6311 85.802C85.0791 85.802 84.5451 85.676 84.0291 85.424C83.5251 85.172 83.0991 84.824 82.7511 84.38C82.4031 83.924 82.1991 83.414 82.1391 82.85C82.1151 82.562 82.1031 82.34 82.1031 82.184C82.1031 81.764 82.1631 81.38 82.2831 81.032C82.4151 80.684 82.6431 80.366 82.9671 80.078C83.0631 79.994 83.1711 79.832 83.2911 79.592C83.3991 79.376 83.5011 79.214 83.5971 79.106C84.1011 78.566 84.7011 78.296 85.3971 78.296C85.7451 78.296 86.1531 78.374 86.6211 78.53C86.6811 78.554 86.8791 78.626 87.2151 78.746C87.5631 78.866 87.8511 79.022 88.0791 79.214C88.3071 79.406 88.4811 79.634 88.6011 79.898ZM85.4691 79.304C85.0251 79.664 84.7071 80.096 84.5151 80.6C84.3351 81.092 84.1731 81.758 84.0291 82.598C84.0531 82.694 84.1071 82.898 84.1911 83.21C84.2751 83.522 84.3771 83.81 84.4971 84.074C84.6291 84.398 84.8631 84.56 85.1991 84.56C85.2591 84.56 85.3731 84.548 85.5411 84.524C85.9131 84.452 86.2371 84.242 86.5131 83.894C86.8011 83.534 87.0231 83.114 87.1791 82.634C87.3351 82.154 87.4131 81.71 87.4131 81.302C87.4131 80.498 87.0831 79.82 86.4231 79.268C86.2551 79.136 86.1051 79.07 85.9731 79.07C85.8291 79.07 85.6611 79.148 85.4691 79.304ZM91.0684 88.88C91.0684 85.628 91.0624 83.192 91.0504 81.572C91.0504 81.26 91.0984 81.02 91.1944 80.852C91.3024 80.672 91.5004 80.528 91.7884 80.42C92.2804 80.24 92.9044 79.982 93.6604 79.646L94.5964 79.232C94.7524 79.172 94.9684 79.154 95.2444 79.178C95.9524 79.226 96.4624 79.406 96.7744 79.718C97.0864 80.018 97.2424 80.45 97.2424 81.014C97.2424 81.326 97.1824 81.734 97.0624 82.238C96.9424 82.73 96.6604 83.372 96.2164 84.164C95.8204 84.884 95.2624 85.244 94.5424 85.244C94.2904 85.244 94.0384 85.202 93.7864 85.118C93.6184 85.07 93.5104 85.046 93.4624 85.046C93.2104 85.046 93.1024 85.256 93.1384 85.676C93.1744 86.564 93.1924 87.434 93.1924 88.286C93.2044 88.49 93.2104 88.784 93.2104 89.168C93.2104 89.396 93.2044 89.57 93.1924 89.69L93.1744 90.194C93.1744 90.506 93.0784 90.758 92.8864 90.95C92.6944 91.142 92.4424 91.238 92.1304 91.238C91.8544 91.238 91.6144 91.136 91.4104 90.932C91.2064 90.728 91.1044 90.488 91.1044 90.212V88.88H91.0684ZM93.0664 81.95C93.0064 81.998 92.9584 82.082 92.9224 82.202C92.8984 82.31 92.8804 82.424 92.8684 82.544C92.8564 82.652 92.8384 82.754 92.8144 82.85C92.8264 82.862 92.8384 82.868 92.8504 82.868C92.8744 82.868 92.8924 82.874 92.9044 82.886C92.9044 82.958 92.9104 83.084 92.9224 83.264C92.9344 83.444 92.9524 83.606 92.9764 83.75C93.0124 83.918 93.0724 84.05 93.1564 84.146C93.2404 84.23 93.3364 84.272 93.4444 84.272C93.5884 84.272 93.7324 84.206 93.8764 84.074C94.6684 83.402 95.1244 82.424 95.2444 81.14C95.2444 81.08 95.1904 80.99 95.0824 80.87C94.9744 80.75 94.9144 80.696 94.9024 80.708C94.5904 80.9 94.2664 81.104 93.9304 81.32C93.5944 81.524 93.3064 81.734 93.0664 81.95ZM102.324 83.192C102.204 83.264 102.03 83.3 101.802 83.3C101.718 83.3 101.616 83.294 101.496 83.282C101.376 83.27 101.274 83.27 101.19 83.282C101.286 83.678 101.514 84.002 101.874 84.254C102.234 84.494 102.636 84.614 103.08 84.614C103.464 84.614 103.806 84.53 104.106 84.362C104.55 84.134 104.934 83.864 105.258 83.552C105.486 83.324 105.702 83.21 105.906 83.21C106.038 83.21 106.152 83.276 106.248 83.408C106.344 83.564 106.392 83.756 106.392 83.984C106.392 84.224 106.344 84.41 106.248 84.542C105.936 85.022 105.528 85.352 105.024 85.532C104.532 85.712 103.956 85.802 103.296 85.802C102.612 85.802 101.952 85.652 101.316 85.352C100.68 85.052 100.134 84.644 99.6784 84.128C99.2344 83.6 98.9404 83.018 98.7964 82.382C98.7004 82.01 98.6524 81.644 98.6524 81.284C98.6524 80.72 98.8084 80.264 99.1204 79.916C99.4444 79.568 99.9604 79.238 100.668 78.926C101.316 78.65 101.916 78.512 102.468 78.512C102.864 78.512 103.248 78.572 103.62 78.692C104.772 79.052 105.348 79.544 105.348 80.168C105.348 80.564 105.114 81.044 104.646 81.608C104.418 81.872 104.148 82.106 103.836 82.31C103.524 82.514 103.218 82.7 102.918 82.868C102.63 83.024 102.432 83.132 102.324 83.192ZM103.08 79.862C103.068 79.802 103.02 79.754 102.936 79.718C102.864 79.67 102.822 79.64 102.81 79.628C102.486 79.604 102.156 79.7 101.82 79.916C101.484 80.12 101.202 80.384 100.974 80.708C100.758 81.032 100.65 81.344 100.65 81.644L100.668 81.788C100.68 81.836 100.74 81.896 100.848 81.968C100.968 82.04 101.04 82.064 101.064 82.04C101.916 81.404 102.558 80.894 102.99 80.51C103.062 80.438 103.098 80.306 103.098 80.114C103.098 79.994 103.092 79.91 103.08 79.862ZM109.809 78.368C109.845 78.488 109.851 78.674 109.827 78.926L109.611 81.05C109.671 81.002 109.761 80.834 109.881 80.546C110.001 80.246 110.115 80.006 110.223 79.826C110.331 79.634 110.415 79.508 110.475 79.448C111.039 78.908 111.675 78.584 112.383 78.476C113.091 78.368 113.871 78.32 114.723 78.332C114.807 78.332 114.897 78.368 114.993 78.44C115.101 78.5 115.155 78.554 115.155 78.602C115.155 78.638 115.119 78.704 115.047 78.8C114.975 78.884 114.909 78.938 114.849 78.962C114.129 79.202 113.493 79.478 112.941 79.79C112.401 80.102 111.933 80.51 111.537 81.014C110.601 82.202 110.061 83.426 109.917 84.686C109.881 85.022 109.779 85.25 109.611 85.37C109.443 85.478 109.209 85.532 108.909 85.532C108.573 85.532 108.273 85.388 108.009 85.1C107.745 84.812 107.613 84.494 107.613 84.146C107.625 82.874 107.631 80.966 107.631 78.422C107.631 78.074 107.709 77.834 107.865 77.702C108.021 77.558 108.303 77.486 108.711 77.486C109.011 77.486 109.263 77.57 109.467 77.738C109.683 77.906 109.797 78.116 109.809 78.368Z" fill="white"/>
</svg>
