<svg width="260" height="260" viewBox="0 0 260 260" fill="none" xmlns="http://www.w3.org/2000/svg">
<rect width="260" height="260" rx="57.5392" fill="#51B44F"/>
<path d="M102.052 191.941C104.051 173.956 112.044 159.969 130.028 151.976" stroke="white" stroke-width="2.5" stroke-linecap="round" stroke-linejoin="round"/>
<path d="M118.038 179.951C142.889 179.951 160.002 166.811 162 131.993V124H145.958C109.99 124 98.056 139.986 98 159.969C98 163.965 98 171.958 105.993 179.951H117.983H118.038Z" stroke="white" stroke-width="2.5" stroke-linecap="round" stroke-linejoin="round"/>
<path d="M54.1687 100.946L57.3377 99.9066L54.22 90.3998L56.8378 89.5413L55.8889 86.6479L53.2711 87.5064L53.1355 87.0931C52.7741 85.9908 53.237 85.076 54.3393 84.7145C54.6424 84.6151 54.8258 84.616 54.9726 84.5984L55.2111 84.5812L54.3075 81.8256C54.1606 81.8432 54.0048 81.8333 53.8214 81.8324C53.4911 81.8491 53.1148 81.9115 52.7015 82.0471C50.1939 82.8694 49.0177 85.2389 49.9214 87.9945L50.1021 88.5456L48.5866 89.0427L49.5354 91.936L51.051 91.439L54.1687 100.946Z" fill="white"/>
<path d="M66.904 97.0065L70.129 96.1568L68.3189 89.2863C67.8756 87.6037 68.6738 86.1938 70.2442 85.7801C70.5807 85.6914 70.8759 85.6736 71.0796 85.65L71.4028 85.6248L70.5163 82.2596L70.221 82.2774C70.0174 82.3011 69.8063 82.2967 69.4978 82.378C68.5163 82.6366 67.8552 83.2006 67.4332 83.7616C67.1838 84.0673 66.9699 84.3935 66.8194 84.7331L65.8891 83.4787L63.5055 84.1067L66.904 97.0065Z" fill="white"/>
<path d="M88.8702 87.8599C88.7653 88.0862 88.598 88.2947 88.3968 88.4801C88.0176 88.8171 87.519 89.147 86.6355 89.3133C84.9255 89.6352 83.7688 88.8201 83.2139 87.5966L92.3338 85.88L92.3103 85.4418C92.2905 85.1799 92.2939 84.8842 92.2349 84.5707C91.4839 80.5808 88.1243 78.4098 84.7044 79.0535C81.1704 79.7187 78.7127 83.2797 79.4101 86.9847C80.1074 90.6896 83.6916 93.1134 87.2256 92.4483C90.1895 91.8904 91.9763 89.3114 92.2902 87.2161L88.8702 87.8599ZM82.6423 85.3435C82.6822 83.831 83.5845 82.5103 85.2944 82.1884C87.0044 81.8666 88.3251 82.7688 88.9122 84.1633L82.6423 85.3435Z" fill="white"/>
<path d="M99.7825 85.9727C100.327 88.568 102.271 90.0777 105.731 89.7014C108.729 89.3752 110.428 87.2943 110.193 85.132C109.678 80.4039 103.022 82.2364 102.822 80.3913C102.743 79.6706 103.257 79.0313 104.266 78.9215C105.275 78.8117 106.074 79.4541 106.281 80.015L109.453 79.67C108.885 77.3981 107.024 75.8502 103.824 76.1983C100.941 76.512 99.271 78.5898 99.5063 80.752C100.005 85.336 106.658 83.4746 106.861 85.3485C106.94 86.0693 106.298 86.8684 105.144 86.9939C103.991 87.1193 103.195 86.5058 102.954 85.6278L99.7825 85.9727Z" fill="white"/>
<path d="M118.762 88.4017L122.095 88.3063L121.884 80.9143C121.834 79.175 122.931 77.9831 124.555 77.9366C126.178 77.8902 127.342 79.0173 127.392 80.7566L127.603 88.1486L130.937 88.0531L130.713 80.2263C130.613 76.7478 128.377 74.6359 125.478 74.7189C124.173 74.7562 123.228 75.1605 122.629 75.5258C122.287 75.7386 122.004 76.0078 121.751 76.2762L121.573 70.0437L118.239 70.1392L118.762 88.4017Z" fill="white"/>
<path d="M148.738 83.7287C148.573 84.0971 148.323 84.4028 148.048 84.649C147.559 85.0867 146.81 85.51 145.739 85.4508C143.856 85.3468 142.487 83.8479 142.609 81.6473C142.73 79.4467 144.256 78.1078 146.139 78.2118C147.21 78.271 147.907 78.8033 148.344 79.2922C148.591 79.5672 148.805 79.8985 148.93 80.254L152.26 80.438C151.798 77.7694 149.5 75.2027 146.315 75.0267C142.724 74.8283 139.487 77.699 139.279 81.4633C139.071 85.2276 141.972 88.4375 145.563 88.6359C148.748 88.8119 151.314 86.514 152.068 83.9127L148.738 83.7287Z" fill="white"/>
<path d="M166.774 80.2045C168.641 80.4658 169.88 82.074 169.574 84.2567C169.269 86.4395 167.636 87.6458 165.769 87.3846C163.902 87.1234 162.663 85.5152 162.969 83.3324C163.274 81.1497 164.907 79.9433 166.774 80.2045ZM167.216 77.0453C163.655 76.547 160.188 79.1366 159.666 82.8703C159.143 86.6039 161.766 90.0455 165.327 90.5438C168.888 91.0421 172.355 88.4525 172.877 84.7189C173.4 80.9853 170.777 77.5436 167.216 77.0453Z" fill="white"/>
<path d="M188.171 84.1013C190.008 84.5217 191.105 86.2302 190.613 88.3787C190.122 90.5272 188.391 91.5891 186.554 91.1687C184.716 90.7484 183.62 89.0398 184.111 86.8913C184.603 84.7428 186.333 83.6809 188.171 84.1013ZM188.882 80.9916C185.377 80.1897 181.701 82.4725 180.86 86.1476C180.02 89.8227 182.337 93.4765 185.843 94.2784C189.348 95.0803 193.024 92.7975 193.864 89.1224C194.705 85.4474 192.387 81.7935 188.882 80.9916Z" fill="white"/>
<path d="M200.344 97.8275L203.524 98.8343L205.362 93.0285L207.947 100.235L211.541 101.373L208.528 93.1183L215.016 88.4805L211.422 87.3424L205.888 91.3696L209.039 81.4167L205.86 80.4099L200.344 97.8275Z" fill="white"/>
</svg>
