<svg width="276" height="394" viewBox="0 0 276 394" fill="none" xmlns="http://www.w3.org/2000/svg">
<g clip-path="url(#clip0_58_23)">
<g clip-path="url(#clip1_58_23)">
<path fill-rule="evenodd" clip-rule="evenodd" d="M187.121 336.111L186.819 336.849C185.525 330.114 183.88 322.887 186.069 314.855C188.65 305.386 194.231 299.979 200.32 294.024C211.353 283.236 233.227 287.697 243.899 296.965C241.367 292.915 244.189 287.543 242.389 284.409H242.993C242.241 282.198 241.363 273.118 242.691 271.114C244.661 268.142 247.028 273.832 248.429 275.546C249.361 276.685 250.616 278.617 251.751 279.238C253.035 279.941 254.617 279.349 256.069 279.704C257.687 280.099 259.298 280.894 260.812 280.347C262.501 279.736 264.289 277.298 265.946 276.284C267.664 275.233 271.823 270.263 270.856 276.175C270.06 281.05 268.147 284.649 266.852 289.209C266.459 290.593 266.7 292.207 266.248 293.641C265.578 295.768 264.094 297.379 263.53 299.55C262.685 302.8 264.206 307.123 265.04 310.26C264.871 309.751 264.606 309.29 264.436 308.782C264.455 310.081 264.55 311.231 264.738 312.476L264.436 311.737C264.692 312.565 264.8 313.479 265.04 314.322C264.843 314.071 264.637 313.83 264.436 313.584C264.578 314.552 264.545 315.584 264.738 316.538L264.436 315.799C264.66 317.914 263.11 323.176 261.718 323.185C259.952 325.52 262.322 328.874 262.322 331.679C262.322 334.359 262.247 336.597 263.228 339.065C264.807 343.036 268.868 345.961 267.003 350.513C265.455 354.293 260.233 350.569 259.302 347.928C258.397 345.361 258.073 342.982 256.885 340.542C255.887 338.489 253.757 336.346 253.564 333.895C252.604 334.527 251.612 334.971 250.544 335.003L250.845 334.633C249.295 335.215 247.634 335.003 246.014 335.003C248.571 338.454 244.498 338.701 242.993 339.435C245.319 342.91 247.682 346.66 249.94 349.774C250.921 351.128 251.537 352.954 252.657 354.207C253.801 355.484 255.361 355.955 256.282 357.53C257.658 359.883 257.093 362.073 255.527 363.993C255.081 364.539 253.304 364.178 252.658 364.178C251.938 364.178 251.491 363.688 250.845 363.439C250.76 363.406 249.505 363.207 249.336 363.07C245.925 360.287 244.458 354.64 241.786 351.621C240.844 350.558 239.51 349.783 238.463 348.667C237.054 347.165 235.883 344.717 234.386 343.497C232.825 342.225 231.3 339.63 229.705 338.696C228.329 337.891 225.505 337.811 223.966 337.588L224.268 338.327C223.45 337.78 222.682 337.626 221.852 337.219L222.154 337.957C219.137 334.944 212.346 335.403 209.47 338.327C205.506 342.358 210.912 343.899 212.943 347.375C214.508 350.055 216.642 352.507 218.743 354.563C220.664 356.442 223.052 357.403 224.872 359.377C226.68 361.337 227.641 365.984 229.704 366.024C231.147 366.053 234.404 363.001 236.047 362.332L235.745 363.07C236.382 362.738 236.803 362.797 237.557 362.701L237.255 363.07C238.901 362.948 238.688 364.903 238.161 366.394L238.463 366.024C238.891 370.435 232.386 372.83 229.615 373.506C223.786 374.93 217.672 375.691 211.886 373.042C199.523 367.38 191.07 350.598 187.121 336.111ZM204.033 354.575C207.39 357.203 211.366 358.035 214.816 360.566C217.492 362.53 218.079 364.644 220.342 367.132C213.746 365.035 208.102 361.962 204.033 354.575Z" fill="#404040" stroke="black" stroke-width="0.405" stroke-miterlimit="9.8213"/>
<path d="M187.121 336.111L186.819 336.849C185.525 330.114 183.88 322.887 186.069 314.855C188.65 305.386 194.231 299.979 200.32 294.024C211.353 283.236 233.227 287.697 243.899 296.965C241.367 292.915 244.189 287.543 242.389 284.409H242.993C242.241 282.198 241.363 273.118 242.691 271.114C244.661 268.142 247.028 273.832 248.429 275.546C249.361 276.685 250.616 278.617 251.751 279.238C253.035 279.941 254.617 279.349 256.069 279.704C257.687 280.099 259.298 280.894 260.812 280.347C262.501 279.736 264.289 277.298 265.946 276.284C267.664 275.233 271.823 270.263 270.856 276.175C270.06 281.05 268.147 284.649 266.852 289.209C266.459 290.593 266.7 292.207 266.248 293.641C265.578 295.768 264.094 297.379 263.53 299.55C262.685 302.8 264.206 307.123 265.04 310.26C264.871 309.751 264.606 309.29 264.436 308.782C264.455 310.081 264.55 311.231 264.738 312.476L264.436 311.737C264.692 312.565 264.8 313.479 265.04 314.322C264.843 314.071 264.637 313.83 264.436 313.584C264.578 314.552 264.545 315.584 264.738 316.538L264.436 315.799C264.66 317.914 263.11 323.176 261.718 323.185C259.952 325.52 262.322 328.874 262.322 331.679C262.322 334.359 262.247 336.597 263.228 339.065C264.807 343.036 268.868 345.961 267.003 350.513C265.455 354.293 260.233 350.569 259.302 347.928C258.397 345.361 258.073 342.982 256.885 340.542C255.887 338.489 253.757 336.346 253.564 333.895C252.604 334.527 251.612 334.971 250.544 335.003L250.845 334.633C249.295 335.215 247.634 335.003 246.014 335.003C248.571 338.454 244.498 338.701 242.993 339.435C245.319 342.91 247.682 346.66 249.94 349.774C250.921 351.128 251.537 352.954 252.657 354.207C253.801 355.484 255.361 355.955 256.282 357.53C257.658 359.883 257.093 362.073 255.527 363.993C255.081 364.539 253.304 364.178 252.658 364.178C251.938 364.178 251.491 363.688 250.845 363.439C250.76 363.406 249.505 363.207 249.336 363.07C245.925 360.287 244.458 354.64 241.786 351.621C240.844 350.558 239.51 349.783 238.463 348.667C237.054 347.165 235.883 344.717 234.386 343.497C232.825 342.225 231.3 339.63 229.705 338.696C228.329 337.891 225.505 337.811 223.966 337.588L224.268 338.327C223.45 337.78 222.682 337.626 221.852 337.219L222.154 337.957C219.137 334.944 212.346 335.403 209.47 338.327C205.506 342.358 210.912 343.899 212.943 347.375C214.508 350.055 216.642 352.507 218.743 354.563C220.664 356.442 223.052 357.403 224.872 359.377C226.68 361.337 227.641 365.984 229.704 366.024C231.147 366.053 234.404 363.001 236.047 362.332L235.745 363.07C236.382 362.738 236.803 362.797 237.557 362.701L237.255 363.07C238.901 362.948 238.688 364.903 238.161 366.394L238.463 366.024C238.891 370.435 232.386 372.83 229.615 373.506C223.786 374.93 217.672 375.691 211.886 373.042C199.523 367.38 191.07 350.598 187.121 336.111Z" stroke="black" stroke-width="0.405" stroke-miterlimit="9.8213" stroke-linecap="square"/>
<path d="M204.033 354.576C207.39 357.203 211.366 358.035 214.816 360.567C217.492 362.53 218.079 364.645 220.342 367.132C213.746 365.035 208.102 361.962 204.033 354.576Z" stroke="black" stroke-width="0.405" stroke-miterlimit="9.8213" stroke-linecap="square"/>
<path d="M220.342 367.132C222.553 368.52 226.477 367.129 228.798 366.393" stroke="black" stroke-width="0.405" stroke-miterlimit="9.8213" stroke-linecap="square"/>
<path d="M224.57 361.223C225.272 361.568 225.797 362.209 226.08 363.069" stroke="black" stroke-width="0.405" stroke-miterlimit="9.8213" stroke-linecap="square"/>
<path d="M222.155 360.116C222.888 360.4 223.613 360.914 224.269 361.593" stroke="black" stroke-width="0.405" stroke-miterlimit="9.8213" stroke-linecap="square"/>
<path d="M224.269 373.779C223.425 373.667 222.586 373.277 221.853 372.672" stroke="black" stroke-width="0.405" stroke-miterlimit="9.8213" stroke-linecap="square"/>
<path d="M222.456 373.779C221.714 373.385 221.218 372.974 220.643 372.302" stroke="black" stroke-width="0.405" stroke-miterlimit="9.8213" stroke-linecap="square"/>
<path d="M214.302 372.672C213.648 372.194 213.176 371.61 212.792 370.826" stroke="black" stroke-width="0.405" stroke-miterlimit="9.8213" stroke-linecap="square"/>
<path d="M212.489 371.563C211.803 370.86 211.3 369.999 210.979 368.977" stroke="black" stroke-width="0.405" stroke-miterlimit="9.8213" stroke-linecap="square"/>
<path d="M211.885 356.792C211.183 356.447 210.658 355.805 210.375 354.946" stroke="black" stroke-width="0.405" stroke-miterlimit="9.8213" stroke-linecap="square"/>
<path d="M210.375 356.052C209.837 355.446 209.512 354.667 209.469 353.836" stroke="black" stroke-width="0.405" stroke-miterlimit="9.8213" stroke-linecap="square"/>
<path d="M213.397 353.097C213.264 352.265 212.951 351.491 212.49 350.881" stroke="black" stroke-width="0.405" stroke-miterlimit="9.8213" stroke-linecap="square"/>
<path d="M212.792 352.359C212.142 351.343 211.509 350.569 210.678 349.773" stroke="black" stroke-width="0.405" stroke-miterlimit="9.8213" stroke-linecap="square"/>
<path d="M211.885 352.359C210.299 350.162 207.505 349.663 206.751 346.819" stroke="black" stroke-width="0.405" stroke-miterlimit="9.8213" stroke-linecap="square"/>
<path d="M207.054 352.728C206.082 352.296 205.464 351.083 205.242 349.773" stroke="black" stroke-width="0.405" stroke-miterlimit="9.8213" stroke-linecap="square"/>
<path d="M204.335 351.621C203.495 350.463 203.396 349.118 203.127 347.559" stroke="black" stroke-width="0.405" stroke-miterlimit="9.8213" stroke-linecap="square"/>
<path d="M201.919 344.605C201.496 346.366 202.057 347.997 202.523 349.774" stroke="black" stroke-width="0.405" stroke-miterlimit="9.8213" stroke-linecap="square"/>
<path d="M203.731 364.915C202.905 363.946 202.453 362.601 202.221 361.223" stroke="black" stroke-width="0.405" stroke-miterlimit="9.8213" stroke-linecap="square"/>
<path d="M200.107 360.854C199.252 359.907 198.99 358.532 198.899 357.161" stroke="black" stroke-width="0.405" stroke-miterlimit="9.8213" stroke-linecap="square"/>
<path d="M198.295 358.268C198.149 356.91 197.958 355.602 197.993 354.206" stroke="black" stroke-width="0.405" stroke-miterlimit="9.8213" stroke-linecap="square"/>
<path d="M194.067 350.145C193.669 348.201 193.098 346.254 193.161 344.236" stroke="black" stroke-width="0.405" stroke-miterlimit="9.8213" stroke-linecap="square"/>
<path d="M192.255 347.559C192.142 346.318 192.219 345.03 192.557 343.865" stroke="black" stroke-width="0.405" stroke-miterlimit="9.8213" stroke-linecap="square"/>
<path d="M204.033 354.576L203.429 353.468L203.127 354.207C200.842 349.55 198.138 343.354 197.087 339.435C196.726 337.006 196.483 334.897 196.483 332.418" stroke="black" stroke-width="0.405" stroke-miterlimit="9.8213" stroke-linecap="square"/>
<path d="M195.275 336.848C194.455 336.134 194.033 335.113 194.067 333.894" stroke="black" stroke-width="0.405" stroke-miterlimit="9.8213" stroke-linecap="square"/>
<path d="M194.067 336.848C193.223 335.48 192.87 333.725 192.557 332.048" stroke="black" stroke-width="0.405" stroke-miterlimit="9.8213" stroke-linecap="square"/>
<path d="M189.839 332.787C188.949 334.457 188.624 336.72 189.235 338.696" stroke="black" stroke-width="0.405" stroke-miterlimit="9.8213" stroke-linecap="square"/>
<path d="M188.027 334.265C187.93 332.409 188.353 330.597 189.235 329.095" stroke="black" stroke-width="0.405" stroke-miterlimit="9.8213" stroke-linecap="square"/>
<path d="M187.121 332.049C187.121 329.587 187.093 327.582 188.027 325.402" stroke="black" stroke-width="0.405" stroke-miterlimit="9.8213" stroke-linecap="square"/>
<path d="M197.087 328.356C198.284 329.888 199.168 332.093 198.899 334.265" stroke="black" stroke-width="0.405" stroke-miterlimit="9.8213" stroke-linecap="square"/>
<path d="M199.503 335.741C199.887 333.861 199.978 332.02 199.201 330.202" stroke="black" stroke-width="0.405" stroke-miterlimit="9.8213" stroke-linecap="square"/>
<path d="M201.919 340.91C203.233 339.32 205.554 339.192 206.147 336.848" stroke="black" stroke-width="0.405" stroke-miterlimit="9.8213" stroke-linecap="square"/>
<path d="M204.94 332.418C204.924 330.431 205.396 328.472 206.45 326.878" stroke="black" stroke-width="0.405" stroke-miterlimit="9.8213" stroke-linecap="square"/>
<path d="M195.577 321.34C195.503 322.362 195.302 323.347 194.973 324.294" stroke="black" stroke-width="0.405" stroke-miterlimit="9.8213" stroke-linecap="square"/>
<path d="M194.369 322.078C194.351 320.788 194.778 319.598 195.577 318.754" stroke="black" stroke-width="0.405" stroke-miterlimit="9.8213" stroke-linecap="square"/>
<path d="M196.483 315.059C195.165 315.977 194.165 317.519 193.463 319.122" stroke="black" stroke-width="0.405" stroke-miterlimit="9.8213" stroke-linecap="square"/>
<path d="M193.463 316.169C194.484 314.752 195.385 313.373 196.785 312.476" stroke="black" stroke-width="0.405" stroke-miterlimit="9.8213" stroke-linecap="square"/>
<path d="M186.819 320.968C187.059 319.373 187.511 317.826 188.329 316.537" stroke="black" stroke-width="0.405" stroke-miterlimit="9.8213" stroke-linecap="square"/>
<path d="M187.423 316.907C187.594 315.177 188.666 314.046 189.839 313.214" stroke="black" stroke-width="0.405" stroke-miterlimit="9.8213" stroke-linecap="square"/>
<path d="M188.329 313.583C188.905 312.748 189.609 312.132 190.443 311.736" stroke="black" stroke-width="0.405" stroke-miterlimit="9.8213" stroke-linecap="square"/>
<path d="M208.564 335.003C209.681 334.303 210.141 333.031 210.678 331.679" stroke="black" stroke-width="0.405" stroke-miterlimit="9.8213" stroke-linecap="square"/>
<path d="M211.584 330.939C211.515 332.347 211.111 333.658 210.678 335.002" stroke="black" stroke-width="0.405" stroke-miterlimit="9.8213" stroke-linecap="square"/>
<path d="M211.584 334.634C212.409 332.724 213.009 330.914 212.791 328.725" stroke="black" stroke-width="0.405" stroke-miterlimit="9.8213" stroke-linecap="square"/>
<path d="M208.564 330.573C208.36 328.775 209.207 327.325 209.772 325.771" stroke="black" stroke-width="0.405" stroke-miterlimit="9.8213" stroke-linecap="square"/>
<path d="M208.564 325.032C209.632 323.913 210.166 322.279 210.376 320.601" stroke="black" stroke-width="0.405" stroke-miterlimit="9.8213" stroke-linecap="square"/>
<path d="M210.678 322.078C211.12 321.015 211.122 319.81 210.678 318.754" stroke="black" stroke-width="0.405" stroke-miterlimit="9.8213" stroke-linecap="square"/>
<path d="M215.812 329.463C216.809 328.948 217.437 327.814 217.624 326.509" stroke="black" stroke-width="0.405" stroke-miterlimit="9.8213" stroke-linecap="square"/>
<path d="M216.113 327.618C217.157 327.105 217.755 326.044 217.623 324.664" stroke="black" stroke-width="0.405" stroke-miterlimit="9.8213" stroke-linecap="square"/>
<path d="M216.416 323.185C216.917 322.29 217.12 321.304 217.02 320.231" stroke="black" stroke-width="0.405" stroke-miterlimit="9.8213" stroke-linecap="square"/>
<path d="M217.926 322.816C218.479 320.378 218.018 318.208 217.624 315.799" stroke="black" stroke-width="0.405" stroke-miterlimit="9.8213" stroke-linecap="square"/>
<path d="M219.737 319.861C219.737 316.761 219.426 313.62 217.925 310.998" stroke="black" stroke-width="0.405" stroke-miterlimit="9.8213" stroke-linecap="square"/>
<path d="M201.315 307.305C201.314 305.886 201.669 304.501 202.221 303.243" stroke="black" stroke-width="0.405" stroke-miterlimit="9.8213" stroke-linecap="square"/>
<path d="M200.107 306.198C200.136 304.448 200.823 302.562 201.919 301.397" stroke="black" stroke-width="0.405" stroke-miterlimit="9.8213" stroke-linecap="square"/>
<path d="M199.805 300.658C200.656 299.446 201.813 298.69 203.127 298.811" stroke="black" stroke-width="0.405" stroke-miterlimit="9.8213" stroke-linecap="square"/>
<path d="M200.711 298.444C201.403 297.719 202.216 297.479 203.127 297.705" stroke="black" stroke-width="0.405" stroke-miterlimit="9.8213" stroke-linecap="square"/>
<path d="M211.584 294.01C212.966 293.859 214.654 293.998 215.812 294.749" stroke="black" stroke-width="0.405" stroke-miterlimit="9.8213" stroke-linecap="square"/>
<path d="M215.208 293.641C214.108 292.624 212.913 292.903 211.584 292.903" stroke="black" stroke-width="0.405" stroke-miterlimit="9.8213" stroke-linecap="square"/>
<path d="M212.489 295.488C214.262 296.082 218.255 298.158 218.529 299.55C220.564 302.266 224.685 305.869 223.361 310.26L223.059 309.89C223.059 316.212 222.36 322.755 219.737 328.356L219.435 327.617C218.541 329.911 217.553 331.722 215.811 333.156L216.113 332.417C215.368 333.668 214.418 334.831 213.395 335.741C216.837 334.058 222.818 333.995 225.173 330.202" stroke="black" stroke-width="0.405" stroke-miterlimit="9.8213" stroke-linecap="square"/>
<path d="M220.946 329.832C221.795 328.214 222.719 326.546 223.06 324.662" stroke="black" stroke-width="0.405" stroke-miterlimit="9.8213" stroke-linecap="square"/>
<path d="M220.643 331.311C221.052 330.915 221.355 330.422 221.549 329.833" stroke="black" stroke-width="0.405" stroke-miterlimit="9.8213" stroke-linecap="square"/>
<path d="M229.403 331.68C229.076 331.293 228.987 330.777 229.101 330.203" stroke="black" stroke-width="0.405" stroke-miterlimit="9.8213" stroke-linecap="square"/>
<path d="M228.798 327.984C228.063 328.901 227.674 330.006 227.591 331.309" stroke="black" stroke-width="0.405" stroke-miterlimit="9.8213" stroke-linecap="square"/>
<path d="M226.684 329.832C226.445 327.376 228.533 325.605 230.006 324.293" stroke="black" stroke-width="0.405" stroke-miterlimit="9.8213" stroke-linecap="square"/>
<path d="M228.497 322.447C227.008 323.418 225.841 325.75 225.175 327.617L225.779 327.248C225.296 328.509 225.069 329.923 225.175 331.31L225.779 330.572C225.81 333.329 228.031 337.058 229.705 338.696" stroke="black" stroke-width="0.405" stroke-miterlimit="9.8213" stroke-linecap="square"/>
<path d="M230.913 336.11C230.394 335.662 230.065 335.01 230.007 334.264" stroke="black" stroke-width="0.405" stroke-miterlimit="9.8213" stroke-linecap="square"/>
<path d="M230.007 336.11C229.14 335.045 228.62 333.694 229.101 332.417" stroke="black" stroke-width="0.405" stroke-miterlimit="9.8213" stroke-linecap="square"/>
<path d="M233.932 332.787C233.676 333.233 233.575 333.726 233.631 334.265" stroke="black" stroke-width="0.405" stroke-miterlimit="9.8213" stroke-linecap="square"/>
<path d="M234.236 333.894C233.979 334.34 233.877 334.832 233.933 335.371" stroke="black" stroke-width="0.405" stroke-miterlimit="9.8213" stroke-linecap="square"/>
<path d="M233.027 337.22C233.842 338.314 234.721 339.386 235.745 340.174" stroke="black" stroke-width="0.405" stroke-miterlimit="9.8213" stroke-linecap="square"/>
<path d="M236.952 340.91C237.893 342.486 239.98 342.946 241.482 343.864" stroke="black" stroke-width="0.405" stroke-miterlimit="9.8213" stroke-linecap="square"/>
<path d="M239.974 344.605C241.078 345.079 241.936 346.065 242.692 347.19" stroke="black" stroke-width="0.405" stroke-miterlimit="9.8213" stroke-linecap="square"/>
<path d="M251.147 359.006C251.657 360.382 251.657 362.024 250.543 362.699" stroke="black" stroke-width="0.405" stroke-miterlimit="9.8213" stroke-linecap="square"/>
<path d="M253.866 364.177C254.92 363.146 254.994 361.529 254.47 360.115" stroke="black" stroke-width="0.405" stroke-miterlimit="9.8213" stroke-linecap="square"/>
<path d="M255.677 358.637C256.416 359.681 256.731 360.943 256.583 362.33" stroke="black" stroke-width="0.405" stroke-miterlimit="9.8213" stroke-linecap="square"/>
<path d="M262.624 351.252C263.571 350.366 263.998 349.026 263.832 347.559" stroke="black" stroke-width="0.405" stroke-miterlimit="9.8213" stroke-linecap="square"/>
<path d="M266.248 347.19C266.536 348.878 266.065 350.489 265.039 351.621" stroke="black" stroke-width="0.405" stroke-miterlimit="9.8213" stroke-linecap="square"/>
<path d="M267.457 347.191C267.18 346.888 266.977 346.514 266.852 346.082" stroke="black" stroke-width="0.405" stroke-miterlimit="9.8213" stroke-linecap="square"/>
<path d="M259.905 343.126C259.506 343.618 259.159 343.936 258.698 344.234" stroke="black" stroke-width="0.405" stroke-miterlimit="9.8213" stroke-linecap="square"/>
<path d="M257.189 339.803C256.768 338.967 256.768 338.053 257.189 337.218" stroke="black" stroke-width="0.405" stroke-miterlimit="9.8213" stroke-linecap="square"/>
<path d="M255.677 337.22C255.81 336.388 256.122 335.614 256.583 335.004" stroke="black" stroke-width="0.405" stroke-miterlimit="9.8213" stroke-linecap="square"/>
<path d="M255.376 336.11C255.682 335.186 256.096 334.297 256.583 333.525" stroke="black" stroke-width="0.405" stroke-miterlimit="9.8213" stroke-linecap="square"/>
<path d="M259.905 333.895C259.849 333.356 259.951 332.864 260.207 332.418" stroke="black" stroke-width="0.405" stroke-miterlimit="9.8213" stroke-linecap="square"/>
<path d="M259.604 332.418C259.861 331.972 259.962 331.479 259.906 330.94" stroke="black" stroke-width="0.405" stroke-miterlimit="9.8213" stroke-linecap="square"/>
<path d="M259.301 330.939C259.563 330.233 259.664 329.495 259.603 328.724" stroke="black" stroke-width="0.405" stroke-miterlimit="9.8213" stroke-linecap="square"/>
<path d="M255.072 328.356C255.158 329.251 255.057 330.115 254.771 330.941" stroke="black" stroke-width="0.405" stroke-miterlimit="9.8213" stroke-linecap="square"/>
<path d="M254.47 329.832C254.211 330.419 254.009 331.035 253.866 331.679" stroke="black" stroke-width="0.405" stroke-miterlimit="9.8213" stroke-linecap="square"/>
<path d="M253.563 326.508C254.734 323.245 252.202 321.911 251.448 319.492" stroke="black" stroke-width="0.405" stroke-miterlimit="9.8213" stroke-linecap="square"/>
<path d="M252.354 324.663C252.454 325.737 252.251 326.722 251.75 327.618" stroke="black" stroke-width="0.405" stroke-miterlimit="9.8213" stroke-linecap="square"/>
<path d="M249.336 327.246C248.633 328.613 247.734 329.71 246.618 330.57" stroke="black" stroke-width="0.405" stroke-miterlimit="9.8213" stroke-linecap="square"/>
<path d="M248.732 324.294C248.62 325.428 248.302 326.588 247.826 327.618" stroke="black" stroke-width="0.405" stroke-miterlimit="9.8213" stroke-linecap="square"/>
<path d="M246.919 329.094C246.291 329.87 245.656 330.383 245.107 330.572" stroke="black" stroke-width="0.405" stroke-miterlimit="9.8213" stroke-linecap="square"/>
<path d="M246.314 338.327C245.35 337.87 244.25 338.32 243.596 339.066" stroke="black" stroke-width="0.405" stroke-miterlimit="9.8213" stroke-linecap="square"/>
<path d="M243.596 339.065C243.639 338.735 243.529 338.495 243.294 338.326" stroke="black" stroke-width="0.405" stroke-miterlimit="9.8213" stroke-linecap="square"/>
<path d="M242.69 337.589C242.937 335.83 244.783 336.201 245.71 337.22C244.525 338.464 242.828 338.613 242.388 336.85" stroke="black" stroke-width="0.405" stroke-miterlimit="9.8213" stroke-linecap="square"/>
<path d="M242.994 339.434C241.69 336.242 239.334 333.373 238.464 330.201" stroke="black" stroke-width="0.405" stroke-miterlimit="9.8213" stroke-linecap="square"/>
<path d="M239.671 333.156C241.661 333.986 243.914 334.295 246.013 335.002" stroke="black" stroke-width="0.405" stroke-miterlimit="9.8213" stroke-linecap="square"/>
<path d="M245.409 335.372C245.743 335.871 245.835 336.529 245.711 337.219" stroke="black" stroke-width="0.405" stroke-miterlimit="9.8213" stroke-linecap="square"/>
<path d="M240.879 329.463C241.335 327.663 241.562 324.781 239.973 323.923" stroke="black" stroke-width="0.405" stroke-miterlimit="9.8213" stroke-linecap="square"/>
<path d="M242.389 329.463C242.947 328.762 243.146 327.862 242.993 326.877" stroke="black" stroke-width="0.405" stroke-miterlimit="9.8213" stroke-linecap="square"/>
<path d="M246.919 321.34C247.46 319.742 247.153 318.101 246.617 316.539" stroke="black" stroke-width="0.405" stroke-miterlimit="9.8213" stroke-linecap="square"/>
<path d="M247.523 322.447C248.288 320.489 248.01 318.931 247.523 316.907" stroke="black" stroke-width="0.405" stroke-miterlimit="9.8213" stroke-linecap="square"/>
<path d="M248.732 318.754C248.788 318.215 248.687 317.723 248.43 317.277" stroke="black" stroke-width="0.405" stroke-miterlimit="9.8213" stroke-linecap="square"/>
<path d="M241.181 314.321C239.772 313.823 237.771 314.434 236.952 316.168" stroke="black" stroke-width="0.405" stroke-miterlimit="9.8213" stroke-linecap="square"/>
<path d="M236.952 308.784C236.089 309.293 235.341 310.073 234.838 310.999" stroke="black" stroke-width="0.405" stroke-miterlimit="9.8213" stroke-linecap="square"/>
<path d="M232.423 313.214C231.935 313.986 231.521 314.875 231.215 315.799" stroke="black" stroke-width="0.405" stroke-miterlimit="9.8213" stroke-linecap="square"/>
<path d="M232.423 314.69C232.13 315.252 232.031 315.871 232.121 316.537" stroke="black" stroke-width="0.405" stroke-miterlimit="9.8213" stroke-linecap="square"/>
<path d="M230.913 317.645C230.416 318.114 230.115 318.731 230.007 319.492" stroke="black" stroke-width="0.405" stroke-miterlimit="9.8213" stroke-linecap="square"/>
<path d="M229.704 317.645C228.814 318.484 228.201 319.659 227.892 320.968" stroke="black" stroke-width="0.405" stroke-miterlimit="9.8213" stroke-linecap="square"/>
<path d="M224.269 324.294C224.625 322.991 224.609 321.541 224.269 320.232" stroke="black" stroke-width="0.405" stroke-miterlimit="9.8213" stroke-linecap="square"/>
<path d="M224.871 321.34C224.932 320.569 224.831 319.83 224.569 319.124" stroke="black" stroke-width="0.405" stroke-miterlimit="9.8213" stroke-linecap="square"/>
<path d="M224.871 316.169C224.932 315.397 224.831 314.659 224.569 313.953" stroke="black" stroke-width="0.405" stroke-miterlimit="9.8213" stroke-linecap="square"/>
<path d="M225.475 314.69C225.332 314.046 225.13 313.43 224.872 312.844" stroke="black" stroke-width="0.405" stroke-miterlimit="9.8213" stroke-linecap="square"/>
<path d="M226.383 311.738C226.897 309.996 226.225 308.27 225.779 306.568" stroke="black" stroke-width="0.405" stroke-miterlimit="9.8213" stroke-linecap="square"/>
<path d="M227.289 313.952C227.723 312.263 227.734 310.453 227.289 308.782" stroke="black" stroke-width="0.405" stroke-miterlimit="9.8213" stroke-linecap="square"/>
<path d="M228.194 310.26C227.993 309.521 227.792 308.782 227.59 308.044" stroke="black" stroke-width="0.405" stroke-miterlimit="9.8213" stroke-linecap="square"/>
<path d="M228.497 305.829C228.037 304.571 227.347 303.388 226.383 302.875" stroke="black" stroke-width="0.405" stroke-miterlimit="9.8213" stroke-linecap="square"/>
<path d="M218.832 297.703C219.846 298.215 220.733 298.717 221.55 299.55" stroke="black" stroke-width="0.405" stroke-miterlimit="9.8213" stroke-linecap="square"/>
<path d="M217.322 296.596C218.457 296.465 219.608 296.749 220.644 297.334" stroke="black" stroke-width="0.405" stroke-miterlimit="9.8213" stroke-linecap="square"/>
<path d="M214.001 290.318C215.268 290.834 216.522 291.22 217.625 292.164" stroke="black" stroke-width="0.405" stroke-miterlimit="9.8213" stroke-linecap="square"/>
<path d="M217.623 291.425C218.452 291.788 218.882 292.571 218.831 293.641" stroke="black" stroke-width="0.405" stroke-miterlimit="9.8213" stroke-linecap="square"/>
<path d="M221.851 291.056C222.851 291.48 223.744 292.131 224.569 292.902" stroke="black" stroke-width="0.405" stroke-miterlimit="9.8213" stroke-linecap="square"/>
<path d="M229.1 290.687C229.894 291.564 230.615 292.556 231.214 293.641" stroke="black" stroke-width="0.405" stroke-miterlimit="9.8213" stroke-linecap="square"/>
<path d="M232.724 292.902C233.126 293.641 233.529 294.379 233.931 295.118" stroke="black" stroke-width="0.405" stroke-miterlimit="9.8213" stroke-linecap="square"/>
<path d="M233.932 292.902L234.537 294.38" stroke="black" stroke-width="0.405" stroke-miterlimit="9.8213" stroke-linecap="square"/>
<path d="M237.858 302.134C238.377 300.722 239.16 299.521 240.274 298.811" stroke="black" stroke-width="0.405" stroke-miterlimit="9.8213" stroke-linecap="square"/>
<path d="M239.066 303.612C239.104 302.464 239.537 301.41 240.275 300.658" stroke="black" stroke-width="0.405" stroke-miterlimit="9.8213" stroke-linecap="square"/>
<path d="M249.336 304.35C248.151 305.949 248.929 308.063 249.94 309.521" stroke="black" stroke-width="0.405" stroke-miterlimit="9.8213" stroke-linecap="square"/>
<path d="M250.543 307.305C249.998 308.673 250.764 309.934 252.053 310.259" stroke="black" stroke-width="0.405" stroke-miterlimit="9.8213" stroke-linecap="square"/>
<path d="M258.395 313.214C259.285 315.093 259.552 317.318 259 319.492" stroke="black" stroke-width="0.405" stroke-miterlimit="9.8213" stroke-linecap="square"/>
<path d="M259.905 320.968C260.377 319.331 260.328 317.457 259.905 315.798" stroke="black" stroke-width="0.405" stroke-miterlimit="9.8213" stroke-linecap="square"/>
<path d="M260.51 312.107C260.073 310.55 259.337 309.217 258.396 308.045" stroke="black" stroke-width="0.405" stroke-miterlimit="9.8213" stroke-linecap="square"/>
<path d="M258.699 305.829C259.588 306.669 260.201 307.844 260.51 309.153" stroke="black" stroke-width="0.405" stroke-miterlimit="9.8213" stroke-linecap="square"/>
<path d="M260.811 307.305C261.363 308.563 261.719 309.948 261.717 311.368" stroke="black" stroke-width="0.405" stroke-miterlimit="9.8213" stroke-linecap="square"/>
<path d="M260.811 325.031C260.632 325.222 260.44 325.744 260.51 325.031C260.253 326.452 259.239 328.014 258.698 327.986C258.253 329.043 257.762 330.003 257.188 330.94V330.202C256.593 331.078 255.993 331.933 255.375 332.786C255.598 332.309 255.77 331.795 255.979 331.31C255.264 332.302 254.49 333.246 253.564 333.894" stroke="black" stroke-width="0.405" stroke-miterlimit="9.8213" stroke-linecap="square"/>
<path d="M243.899 296.965C246.105 300.446 247.423 297.392 249.638 298.073C251.798 298.738 251.893 302.312 255.074 300.658" stroke="black" stroke-width="0.405" stroke-miterlimit="9.8213" stroke-linecap="square"/>
<path d="M252.053 301.765C249.617 302.401 248.271 301.435 246.616 299.18" stroke="black" stroke-width="0.405" stroke-miterlimit="9.8213" stroke-linecap="square"/>
<path d="M245.71 296.965C242.554 296.327 239.753 297.044 236.65 297.335" stroke="black" stroke-width="0.405" stroke-miterlimit="9.8213" stroke-linecap="square"/>
<path d="M234.537 295.856C238.713 295.346 242.804 295.218 246.919 296.225" stroke="black" stroke-width="0.405" stroke-miterlimit="9.8213" stroke-linecap="square"/>
<path d="M246.314 294.749C243.809 293.537 239.875 293.03 237.254 294.01" stroke="black" stroke-width="0.405" stroke-miterlimit="9.8213" stroke-linecap="square"/>
<path d="M248.429 294.38C250.551 292.103 253.142 296.576 250.845 295.488C250.65 296.721 250.404 296.552 249.637 297.334C249.424 296.157 249.054 296.077 249.335 295.118C248.334 295.449 248.771 294.722 248.429 294.38Z" stroke="black" stroke-width="0.405" stroke-miterlimit="9.8213" stroke-linecap="square"/>
<path d="M248.731 295.118C248.688 295.448 248.797 295.688 249.033 295.857" stroke="black" stroke-width="0.405" stroke-miterlimit="9.8213" stroke-linecap="square"/>
<path d="M250.845 296.227C251.114 296.279 251.311 296.146 251.449 295.857" stroke="black" stroke-width="0.405" stroke-miterlimit="9.8213" stroke-linecap="square"/>
<path d="M249.939 295.488C249.781 296.358 249.687 297.164 249.637 298.073" stroke="black" stroke-width="0.405" stroke-miterlimit="9.8213" stroke-linecap="square"/>
<path d="M263.529 305.088C260.038 301.885 257.183 299.913 253.261 297.703" stroke="black" stroke-width="0.405" stroke-miterlimit="9.8213" stroke-linecap="square"/>
<path d="M254.167 299.182C255.98 300.601 257.53 302.161 259.301 303.613" stroke="black" stroke-width="0.405" stroke-miterlimit="9.8213" stroke-linecap="square"/>
<path d="M259 299.551C257.16 298.569 255.929 297.115 253.866 296.965" stroke="black" stroke-width="0.405" stroke-miterlimit="9.8213" stroke-linecap="square"/>
<path d="M254.47 292.902C254.245 292.71 254.06 292.937 253.865 292.534C254.67 289.645 258.857 289.927 258.244 291.425C257.377 293.549 254.781 294.017 254.167 291.795" stroke="black" stroke-width="0.405" stroke-miterlimit="9.8213" stroke-linecap="square"/>
<path d="M255.979 292.164C256.102 291.391 255.747 290.992 256.281 290.687C256.423 291.401 256.058 291.666 255.979 292.164Z" stroke="black" stroke-width="0.405" stroke-miterlimit="9.8213" stroke-linecap="square"/>
<path d="M249.336 289.948C248.328 292.575 246.014 290.418 246.014 288.102C246.014 284.915 251.885 292.464 248.43 291.056" stroke="black" stroke-width="0.405" stroke-miterlimit="9.8213" stroke-linecap="square"/>
<path d="M247.221 289.948C247.262 289.165 247.116 288.708 247.523 288.102C247.668 288.906 247.326 289.357 247.221 289.948Z" stroke="black" stroke-width="0.405" stroke-miterlimit="9.8213" stroke-linecap="square"/>
<path d="M243.899 281.824C242.416 278.929 243.295 275.128 243.295 271.853C245.13 272.138 248.966 278.27 249.033 279.608C248.681 279.178 248.205 278.894 247.825 278.5C248.043 279.032 248.179 279.461 248.429 279.977C248.039 279.916 247.812 279.678 247.523 279.609C247.7 280.058 247.889 280.337 248.127 280.716C247.923 280.74 247.392 280.591 247.221 280.716C247.259 280.962 247.786 281.058 247.523 281.455C247.041 281.523 247.26 281.164 246.919 281.085C246.817 281.277 246.937 281.959 246.919 282.193C246.704 282.102 246.497 281.629 246.315 281.455C246.415 281.824 246.516 282.194 246.617 282.563C246.279 282.155 245.774 281.9 245.409 281.455C245.48 281.932 245.345 282.453 245.409 282.932C245.167 282.428 244.809 281.998 244.503 281.455C244.585 282.013 244.683 282.387 244.805 282.932C244.651 282.537 244.257 281.524 244.05 281.27C243.623 280.747 244.074 281.666 243.899 281.824Z" stroke="black" stroke-width="0.405" stroke-miterlimit="9.8213" stroke-linecap="square"/>
<path d="M243.596 286.256C243.62 287.24 243.989 288.117 244.502 288.472" stroke="black" stroke-width="0.405" stroke-miterlimit="9.8213" stroke-linecap="square"/>
<path d="M243.596 288.84L244.502 289.948" stroke="black" stroke-width="0.405" stroke-miterlimit="9.8213" stroke-linecap="square"/>
<path d="M246.618 286.625C246.283 286.017 246.186 285.213 246.316 284.409" stroke="black" stroke-width="0.405" stroke-miterlimit="9.8213" stroke-linecap="square"/>
<path d="M247.523 283.67C247.872 284.265 248.201 284.936 248.43 285.517" stroke="black" stroke-width="0.405" stroke-miterlimit="9.8213" stroke-linecap="square"/>
<path d="M249.336 285.517C248.968 284.815 248.873 283.849 249.034 282.931" stroke="black" stroke-width="0.405" stroke-miterlimit="9.8213" stroke-linecap="square"/>
<path d="M249.939 282.931C249.781 283.802 249.687 284.609 249.637 285.517" stroke="black" stroke-width="0.405" stroke-miterlimit="9.8213" stroke-linecap="square"/>
<path d="M246.314 278.131C246.375 277.36 246.275 276.621 246.013 275.915" stroke="black" stroke-width="0.405" stroke-miterlimit="9.8213" stroke-linecap="square"/>
<path d="M250.543 281.454C250.687 280.881 250.872 280.422 251.147 279.977" stroke="black" stroke-width="0.405" stroke-miterlimit="9.8213" stroke-linecap="square"/>
<path d="M251.147 281.824C251.086 281.186 251.297 280.699 251.751 280.347" stroke="black" stroke-width="0.405" stroke-miterlimit="9.8213" stroke-linecap="square"/>
<path d="M252.053 283.67C252.197 283.027 252.398 282.41 252.656 281.824" stroke="black" stroke-width="0.405" stroke-miterlimit="9.8213" stroke-linecap="square"/>
<path d="M252.96 282.193C253.097 281.62 253.399 281.251 253.866 281.085" stroke="black" stroke-width="0.405" stroke-miterlimit="9.8213" stroke-linecap="square"/>
<path d="M256.582 286.625C256.869 285.799 256.97 284.935 256.884 284.039" stroke="black" stroke-width="0.405" stroke-miterlimit="9.8213" stroke-linecap="square"/>
<path d="M258.094 284.778C257.77 285.798 257.267 286.66 256.584 287.363" stroke="black" stroke-width="0.405" stroke-miterlimit="9.8213" stroke-linecap="square"/>
<path d="M257.189 287.733C257.542 287.581 257.847 287.333 258.095 286.994" stroke="black" stroke-width="0.405" stroke-miterlimit="9.8213" stroke-linecap="square"/>
<path d="M257.791 289.209C258.039 288.87 258.344 288.623 258.697 288.472" stroke="black" stroke-width="0.405" stroke-miterlimit="9.8213" stroke-linecap="square"/>
<path d="M258.699 289.209C259.469 288.776 259.835 288.035 259.906 286.994" stroke="black" stroke-width="0.405" stroke-miterlimit="9.8213" stroke-linecap="square"/>
<path d="M259.604 297.334C260.077 298.358 260.726 298.807 261.416 298.443" stroke="black" stroke-width="0.405" stroke-miterlimit="9.8213" stroke-linecap="square"/>
<path d="M259.301 295.856C260.009 296.948 260.875 297.702 262.019 297.702" stroke="black" stroke-width="0.405" stroke-miterlimit="9.8213" stroke-linecap="square"/>
<path d="M261.416 296.596C262.059 296.615 262.648 296.493 263.228 296.227" stroke="black" stroke-width="0.405" stroke-miterlimit="9.8213" stroke-linecap="square"/>
<path d="M264.134 290.687C264.543 290.291 264.846 289.798 265.04 289.209" stroke="black" stroke-width="0.405" stroke-miterlimit="9.8213" stroke-linecap="square"/>
<path d="M265.342 290.318C265.604 289.611 265.705 288.873 265.644 288.102" stroke="black" stroke-width="0.405" stroke-miterlimit="9.8213" stroke-linecap="square"/>
<path d="M262.926 283.301C262.66 279.268 267.326 276.171 269.872 274.807C270.11 278.499 269.03 283.769 266.248 285.517C266.423 284.966 266.433 284.577 266.55 284.039C265.896 285.112 265.695 285.115 264.738 285.517C264.794 285.686 265.041 284.752 265.039 284.778C264.757 284.944 264.422 285.31 264.133 285.517C264.242 284.967 264.265 284.596 264.435 284.039C264.22 284.259 264.031 284.537 263.832 284.778C264.045 283.949 264.117 283.074 264.435 282.192C264.058 282.709 263.582 283.131 263.228 283.67C263.447 283.141 263.58 282.418 263.832 281.824C263.352 282.24 263.167 282.798 262.926 283.301Z" stroke="black" stroke-width="0.405" stroke-miterlimit="9.8213" stroke-linecap="square"/>
<path d="M265.039 281.085C264.672 280.67 264.73 280.138 265.039 279.608" stroke="black" stroke-width="0.405" stroke-miterlimit="9.8213" stroke-linecap="square"/>
<path d="M265.644 280.347C265.286 280.026 265.332 279.642 265.644 279.238" stroke="black" stroke-width="0.405" stroke-miterlimit="9.8213" stroke-linecap="square"/>
<path fill-rule="evenodd" clip-rule="evenodd" d="M220.342 367.132C218.276 364.862 217.731 362.382 215.208 360.854H216.114C216.008 360.293 215.69 359.965 215.509 359.377C215.775 359.34 216.166 359.484 216.416 359.377C215.591 358.521 211.269 356.309 214.302 355.683C214.305 355.684 216.131 356.12 217.02 355.683L216.718 355.314C221.232 352.84 226.974 362.275 228.798 366.393C226.591 367.257 222.436 368.446 220.342 367.132ZM250.543 362.7C248.06 364.095 245.746 357.809 245.107 356.053L245.711 355.684C244.94 355.1 245.178 355.068 244.805 354.207C247.089 353.808 247.998 355.301 249.335 355.314C250.333 356.182 251.343 356.497 252.959 357.161H252.355C253.595 357.844 254.382 357.341 254.167 355.683C261.463 358.538 253.541 368.856 250.543 362.7ZM241.785 336.48C241.04 335.41 240.405 334.27 239.671 333.156C241.537 333.936 248.454 333.616 246.315 338.327C245.508 337.73 243.723 338.604 242.993 339.435L241.785 336.48ZM242.691 337.588C242.938 335.829 244.783 336.2 245.711 337.219C244.721 338.258 243.374 338.432 242.691 337.588ZM258.698 344.235C259.949 343.057 261.278 344.142 262.322 344.235C263.965 344.382 264.349 343.279 265.946 344.974V344.235C268.859 346.927 267.853 351.129 264.435 351.621C260.364 352.207 259.716 348.321 258.698 344.235ZM256.583 330.94C257.051 328.711 257.842 328.367 257.489 326.139C257.711 326.627 257.951 326.717 258.094 327.248C258.441 325.291 258.406 323.136 256.583 322.447V323.185C255.591 320.781 251.987 319.526 252.053 316.907C251.08 316.964 248.952 315.525 249.033 313.583C248.452 314.293 247.975 314.395 247.523 315.43V314.322C247.276 314.393 247.301 314.962 246.919 314.691C246.785 313.489 246.985 312.38 247.523 311.368L247.221 311.737C246.838 310.023 245.047 308.234 244.201 308.413C244.201 306.737 244.953 302.563 242.691 303.981C242.737 303.632 242.977 303.729 242.993 303.243C242.376 303.574 241.769 303.508 241.181 303.981C241.773 302.353 242.155 300.964 243.295 299.919C242.586 299.672 242.183 299.443 241.181 299.55C241.577 299.254 241.948 298.816 242.389 298.442C242.261 298.38 241.531 298.119 241.483 298.073L242.087 297.704C242.171 298.036 241.444 297.298 241.483 297.334C242.183 296.147 242.48 296.868 241.785 295.118C243.002 295.83 243.86 297.255 245.107 297.704C244.586 296.718 244.515 296.815 245.107 295.488L244.503 295.857C244.483 294.786 244.234 294.32 244.503 293.272L244.201 293.641C244.58 291.041 246.551 292.062 247.523 291.795C247.767 292.15 247.985 292.839 248.127 293.272L248.429 292.534C248.187 294.497 248.932 295.797 249.637 297.334C250.571 296.551 251.004 296.072 252.053 295.857C251.932 294.711 251.254 293.948 250.241 293.641C250.717 293.172 250.697 292.807 251.147 292.164L250.543 292.902C251.094 291.556 251.664 290.267 252.053 288.84L252.355 289.209C252.705 287.905 252.734 286.527 252.657 285.147C252.702 284.914 253.684 282.829 254.771 282.192C254.114 283.4 253.852 284.775 253.865 286.255L254.167 285.886C254.288 287.219 254.439 288.202 254.469 289.579L254.771 289.209C254.575 289.618 254.455 290.241 254.167 290.687L253.865 290.317C253.726 291.179 253.443 291.73 253.261 292.533V291.795C252.864 292.916 253.214 293.903 254.167 294.379L253.865 294.01C255.098 294.651 256.03 294.073 256.734 294.934C257.494 295.862 257.502 297.249 258.697 298.073H258.093C261.052 300.114 260.857 302.101 264.133 298.442C262.069 301.534 264.184 307.04 265.039 310.26C264.87 309.751 264.605 309.29 264.435 308.782C264.455 310.081 264.549 311.231 264.737 312.476L264.435 311.737C264.691 312.565 264.799 313.479 265.039 314.322C264.843 314.071 264.636 313.83 264.435 313.584C264.578 314.552 264.544 315.584 264.737 316.538L264.435 315.799C264.701 318.31 263.134 322.683 261.717 323.185C261.266 324.149 260.554 325.007 260.509 325.031C260.252 326.452 259.239 328.014 258.697 327.986C258.253 329.043 257.762 330.003 257.187 330.94V330.202L256.583 330.94Z" fill="#D9D9C5" stroke="black" stroke-width="0.405" stroke-miterlimit="9.8213"/>
<path d="M220.342 367.132C218.276 364.862 217.731 362.382 215.208 360.854H216.114C216.008 360.293 215.69 359.965 215.509 359.377C215.775 359.34 216.166 359.484 216.416 359.377C215.591 358.521 211.269 356.309 214.302 355.683C214.305 355.684 216.131 356.12 217.02 355.683L216.718 355.314C221.232 352.84 226.974 362.275 228.798 366.393C226.591 367.257 222.436 368.446 220.342 367.132Z" stroke="black" stroke-width="0.405" stroke-miterlimit="9.8213" stroke-linecap="square"/>
<path d="M250.543 362.699C248.06 364.094 245.745 357.808 245.107 356.052L245.711 355.683C244.939 355.099 245.178 355.067 244.805 354.206C247.089 353.807 247.998 355.3 249.335 355.313C250.333 356.181 251.342 356.496 252.959 357.16H252.355C253.595 357.843 254.382 357.34 254.167 355.682C261.463 358.537 253.54 368.855 250.543 362.699Z" stroke="black" stroke-width="0.405" stroke-miterlimit="9.8213" stroke-linecap="square"/>
<path d="M241.785 336.479C241.04 335.409 240.405 334.269 239.67 333.155C241.537 333.935 248.454 333.615 246.315 338.325C245.508 337.729 243.723 338.603 242.993 339.434L241.785 336.479Z" stroke="black" stroke-width="0.405" stroke-miterlimit="9.8213" stroke-linecap="square"/>
<path d="M242.69 337.589C242.937 335.83 244.783 336.201 245.71 337.22C244.72 338.259 243.374 338.433 242.69 337.589Z" stroke="black" stroke-width="0.405" stroke-miterlimit="9.8213" stroke-linecap="square"/>
<path d="M258.699 344.236C259.95 343.058 261.279 344.143 262.323 344.236C263.965 344.383 264.35 343.28 265.947 344.975V344.236C268.86 346.928 267.854 351.13 264.436 351.622C260.365 352.208 259.717 348.322 258.699 344.236Z" stroke="black" stroke-width="0.405" stroke-miterlimit="9.8213" stroke-linecap="square"/>
<path d="M256.583 330.94C257.051 328.711 257.842 328.367 257.489 326.139C257.711 326.627 257.951 326.717 258.094 327.248C258.441 325.291 258.406 323.136 256.583 322.447V323.185C255.591 320.781 251.987 319.526 252.053 316.907C251.08 316.964 248.952 315.525 249.033 313.583C248.452 314.293 247.975 314.395 247.523 315.43V314.322C247.276 314.393 247.301 314.962 246.919 314.691C246.785 313.489 246.985 312.38 247.523 311.368L247.221 311.737C246.838 310.023 245.047 308.234 244.201 308.413C244.201 306.737 244.953 302.563 242.691 303.981C242.737 303.632 242.977 303.729 242.993 303.243C242.376 303.574 241.769 303.508 241.181 303.981C241.773 302.353 242.155 300.964 243.295 299.919C242.586 299.672 242.183 299.443 241.181 299.55C241.577 299.254 241.948 298.816 242.389 298.442C242.261 298.38 241.531 298.119 241.483 298.073L242.087 297.704C242.171 298.036 241.444 297.298 241.483 297.334C242.183 296.147 242.48 296.868 241.785 295.118C243.002 295.83 243.86 297.255 245.107 297.704C244.586 296.718 244.515 296.815 245.107 295.488L244.503 295.857C244.483 294.786 244.234 294.32 244.503 293.272L244.201 293.641C244.58 291.041 246.551 292.062 247.523 291.795C247.767 292.15 247.985 292.839 248.127 293.272L248.429 292.534C248.187 294.497 248.932 295.797 249.637 297.334C250.571 296.551 251.004 296.072 252.053 295.857C251.932 294.711 251.254 293.948 250.241 293.641C250.717 293.172 250.697 292.807 251.147 292.164L250.543 292.902C251.094 291.556 251.664 290.267 252.053 288.84L252.355 289.209C252.705 287.905 252.734 286.527 252.657 285.147C252.702 284.914 253.684 282.829 254.771 282.192C254.114 283.4 253.852 284.775 253.865 286.255L254.167 285.886C254.288 287.219 254.439 288.202 254.469 289.579L254.771 289.209C254.575 289.618 254.455 290.241 254.167 290.687L253.865 290.317C253.726 291.179 253.443 291.73 253.261 292.533V291.795C252.864 292.916 253.214 293.903 254.167 294.379L253.865 294.01C255.098 294.651 256.03 294.073 256.734 294.934C257.494 295.862 257.502 297.249 258.697 298.073H258.093C261.052 300.114 260.857 302.101 264.133 298.442C262.069 301.534 264.184 307.04 265.039 310.26C264.87 309.751 264.605 309.29 264.435 308.782C264.455 310.081 264.549 311.231 264.737 312.476L264.435 311.737C264.691 312.565 264.799 313.479 265.039 314.322C264.843 314.071 264.636 313.83 264.435 313.584C264.578 314.552 264.544 315.584 264.737 316.538L264.435 315.799C264.701 318.31 263.134 322.683 261.717 323.185C261.266 324.149 260.554 325.007 260.509 325.031C260.252 326.452 259.239 328.014 258.697 327.986C258.253 329.043 257.762 330.003 257.187 330.94V330.202L256.583 330.94Z" stroke="black" stroke-width="0.405" stroke-miterlimit="9.8213" stroke-linecap="square"/>
<path d="M222.155 360.116C222.888 360.4 223.613 360.914 224.269 361.593" stroke="black" stroke-width="0.405" stroke-miterlimit="9.8213" stroke-linecap="square"/>
<path d="M224.57 361.223C225.276 361.515 225.685 362.149 225.778 363.069" stroke="black" stroke-width="0.405" stroke-miterlimit="9.8213" stroke-linecap="square"/>
<path d="M250.543 362.699C251.657 362.024 251.657 360.382 251.147 359.006" stroke="black" stroke-width="0.405" stroke-miterlimit="9.8213" stroke-linecap="square"/>
<path d="M254.47 360.116C254.995 361.53 254.92 363.147 253.866 364.178" stroke="black" stroke-width="0.405" stroke-miterlimit="9.8213" stroke-linecap="square"/>
<path d="M256.582 362.33C256.731 360.943 256.416 359.681 255.676 358.637" stroke="black" stroke-width="0.405" stroke-miterlimit="9.8213" stroke-linecap="square"/>
<path d="M262.624 351.252C263.571 350.366 263.998 349.026 263.832 347.559" stroke="black" stroke-width="0.405" stroke-miterlimit="9.8213" stroke-linecap="square"/>
<path d="M266.248 347.19C266.57 348.883 266.046 350.479 265.039 351.621" stroke="black" stroke-width="0.405" stroke-miterlimit="9.8213" stroke-linecap="square"/>
<path d="M267.457 347.191C267.18 346.888 266.977 346.514 266.852 346.082" stroke="black" stroke-width="0.405" stroke-miterlimit="9.8213" stroke-linecap="square"/>
<path d="M243.596 339.065C243.639 338.735 243.529 338.495 243.294 338.326" stroke="black" stroke-width="0.405" stroke-miterlimit="9.8213" stroke-linecap="square"/>
<path d="M242.69 337.589C242.733 337.259 242.623 337.019 242.388 336.85" stroke="black" stroke-width="0.405" stroke-miterlimit="9.8213" stroke-linecap="square"/>
<path d="M245.711 337.219C245.85 336.528 245.761 335.861 245.409 335.372" stroke="black" stroke-width="0.405" stroke-miterlimit="9.8213" stroke-linecap="square"/>
<path d="M258.395 313.214C259.333 315.195 259.427 317.282 259 319.492" stroke="black" stroke-width="0.405" stroke-miterlimit="9.8213" stroke-linecap="square"/>
<path d="M259.905 320.968C260.377 319.331 260.328 317.457 259.905 315.798" stroke="black" stroke-width="0.405" stroke-miterlimit="9.8213" stroke-linecap="square"/>
<path d="M261.718 311.369C261.72 309.95 261.365 308.565 260.812 307.307" stroke="black" stroke-width="0.405" stroke-miterlimit="9.8213" stroke-linecap="square"/>
<path d="M258.699 305.829C259.588 306.669 260.201 307.844 260.51 309.153" stroke="black" stroke-width="0.405" stroke-miterlimit="9.8213" stroke-linecap="square"/>
<path d="M260.51 312.107C260.073 310.55 259.337 309.217 258.396 308.045" stroke="black" stroke-width="0.405" stroke-miterlimit="9.8213" stroke-linecap="square"/>
<path d="M250.543 307.305C249.977 308.678 250.815 310.023 252.053 310.259" stroke="black" stroke-width="0.405" stroke-miterlimit="9.8213" stroke-linecap="square"/>
<path d="M249.336 304.35C248.151 305.949 248.929 308.063 249.94 309.521" stroke="black" stroke-width="0.405" stroke-miterlimit="9.8213" stroke-linecap="square"/>
<path d="M252.053 301.765C249.617 302.401 248.271 301.435 246.616 299.18" stroke="black" stroke-width="0.405" stroke-miterlimit="9.8213" stroke-linecap="square"/>
<path d="M244.805 297.703C246.431 300.386 247.864 297.472 249.637 298.072C251.858 298.824 251.777 302.292 255.073 300.658" stroke="black" stroke-width="0.405" stroke-miterlimit="9.8213" stroke-linecap="square"/>
<path d="M249.939 295.488C249.793 296.365 249.7 297.163 249.637 298.073" stroke="black" stroke-width="0.405" stroke-miterlimit="9.8213" stroke-linecap="square"/>
<path d="M243.899 296.965L242.389 296.597" stroke="black" stroke-width="0.405" stroke-miterlimit="9.8213" stroke-linecap="square"/>
<path d="M245.108 295.488L246.92 296.227" stroke="black" stroke-width="0.405" stroke-miterlimit="9.8213" stroke-linecap="square"/>
<path d="M244.2 294.38L246.314 294.749" stroke="black" stroke-width="0.405" stroke-miterlimit="9.8213" stroke-linecap="square"/>
<path d="M254.167 299.182C255.98 300.601 257.53 302.161 259.301 303.613" stroke="black" stroke-width="0.405" stroke-miterlimit="9.8213" stroke-linecap="square"/>
<path d="M263.529 305.088C260.038 301.885 257.183 299.913 253.261 297.703" stroke="black" stroke-width="0.405" stroke-miterlimit="9.8213" stroke-linecap="square"/>
<path d="M259 299.551C257.16 298.569 255.929 297.115 253.866 296.965" stroke="black" stroke-width="0.405" stroke-miterlimit="9.8213" stroke-linecap="square"/>
<path fill-rule="evenodd" clip-rule="evenodd" d="M243.899 281.568C242.382 278.605 243.295 274.907 243.295 271.597C245.13 271.882 248.966 278.013 249.033 279.352C248.681 278.922 248.205 278.638 247.825 278.244C248.043 278.775 248.179 279.205 248.429 279.721C248.039 279.66 247.812 279.421 247.523 279.352C247.7 279.802 247.889 280.081 248.127 280.46C247.923 280.484 247.392 280.335 247.221 280.46C247.259 280.706 247.786 280.802 247.523 281.198C247.039 281.274 247.261 280.908 246.919 280.829C246.839 281.146 246.945 281.605 246.919 281.937C246.818 281.956 246.409 281.289 246.315 281.199V282.307C245.995 281.963 245.72 281.554 245.409 281.199C245.474 281.636 245.432 282.231 245.409 282.676C245.167 282.172 244.809 281.742 244.503 281.199C244.585 281.757 244.683 282.131 244.805 282.676C244.651 282.281 244.257 281.267 244.05 281.014C243.623 280.491 244.074 281.41 243.899 281.568ZM262.926 283.045C262.66 279.012 267.326 275.915 269.872 274.551C270.111 278.256 269.08 283.505 266.248 285.261C266.465 284.695 266.428 284.34 266.55 283.783C265.935 284.91 265.797 284.949 264.738 285.261C264.964 285.372 265.038 284.569 265.039 284.522C264.669 284.725 264.451 285.002 264.133 285.261C264.246 284.692 264.223 284.353 264.435 283.783C264.244 283.986 264.056 284.383 263.832 284.522C264.038 283.629 264.09 282.849 264.435 281.936C264.058 282.453 263.583 282.876 263.228 283.414C263.447 282.885 263.58 282.161 263.832 281.567C263.352 281.984 263.167 282.542 262.926 283.045Z" fill="#996666" stroke="black" stroke-width="0.405" stroke-miterlimit="9.8213"/>
<path d="M243.899 281.568C242.382 278.605 243.295 274.907 243.295 271.597C245.13 271.882 248.966 278.013 249.033 279.352C248.681 278.922 248.205 278.638 247.825 278.244C248.043 278.775 248.179 279.205 248.429 279.721C248.039 279.66 247.812 279.421 247.523 279.352C247.7 279.802 247.889 280.081 248.127 280.46C247.923 280.484 247.392 280.335 247.221 280.46C247.259 280.706 247.786 280.802 247.523 281.198C247.039 281.274 247.261 280.908 246.919 280.829C246.839 281.146 246.945 281.605 246.919 281.937C246.818 281.956 246.409 281.289 246.315 281.199V282.307C245.995 281.963 245.72 281.554 245.409 281.199C245.474 281.636 245.432 282.231 245.409 282.676C245.167 282.172 244.809 281.742 244.503 281.199C244.585 281.757 244.683 282.131 244.805 282.676C244.651 282.281 244.257 281.267 244.05 281.014C243.623 280.491 244.074 281.41 243.899 281.568Z" stroke="black" stroke-width="0.405" stroke-miterlimit="9.8213" stroke-linecap="square"/>
<path d="M262.926 283.045C262.66 279.012 267.326 275.915 269.872 274.551C270.111 278.256 269.08 283.505 266.248 285.261C266.465 284.695 266.428 284.34 266.55 283.783C265.935 284.91 265.797 284.949 264.738 285.261C264.964 285.372 265.038 284.569 265.039 284.522C264.669 284.725 264.451 285.002 264.133 285.261C264.246 284.692 264.223 284.353 264.435 283.783C264.244 283.986 264.056 284.383 263.832 284.522C264.038 283.629 264.09 282.849 264.435 281.936C264.058 282.453 263.583 282.876 263.228 283.414C263.447 282.885 263.58 282.161 263.832 281.567C263.352 281.984 263.167 282.542 262.926 283.045Z" stroke="black" stroke-width="0.405" stroke-miterlimit="9.8213" stroke-linecap="square"/>
<path fill-rule="evenodd" clip-rule="evenodd" d="M243.597 339.065C244.284 338.281 245.671 337.47 246.315 338.696C245.432 339.003 244.531 339.126 243.597 339.065ZM242.691 337.588C242.84 336.529 245.405 335.56 245.711 336.849C246.117 338.56 242.969 337.932 242.691 337.588ZM249.335 296.596C249.32 293.687 251.745 292.943 252.053 295.857C251.579 295.575 251.199 295.695 250.845 295.488C250.65 296.721 250.404 296.552 249.637 297.335C249.689 296.931 249.554 296.839 249.335 296.596Z" fill="#F5A9A9" stroke="black" stroke-width="0.405" stroke-miterlimit="9.8213"/>
<path d="M243.596 339.065C244.283 338.281 245.67 337.47 246.314 338.696C245.431 339.002 244.53 339.125 243.596 339.065Z" stroke="black" stroke-width="0.405" stroke-miterlimit="9.8213" stroke-linecap="square"/>
<path d="M242.69 337.589C242.839 336.53 245.404 335.561 245.71 336.85C246.116 338.561 242.969 337.933 242.69 337.589Z" stroke="black" stroke-width="0.405" stroke-miterlimit="9.8213" stroke-linecap="square"/>
<path d="M249.335 296.596C249.32 293.687 251.745 292.943 252.053 295.857C251.579 295.575 251.199 295.695 250.845 295.488C250.65 296.721 250.404 296.552 249.637 297.335C249.689 296.931 249.554 296.839 249.335 296.596Z" stroke="black" stroke-width="0.405" stroke-miterlimit="9.8213" stroke-linecap="square"/>
<path d="M249.637 297.334C249.93 296.773 250.029 296.153 249.939 295.488" stroke="black" stroke-width="0.405" stroke-miterlimit="9.8213" stroke-linecap="square"/>
<path fill-rule="evenodd" clip-rule="evenodd" d="M248.429 290.8C246.794 291.103 244.987 288.282 246.617 287.476C248.195 286.696 250.274 289.748 248.429 290.8ZM247.221 289.692C247.262 288.909 247.116 288.452 247.523 287.845C247.668 288.65 247.326 289.1 247.221 289.692ZM254.47 292.646C253.444 289.532 255.962 290.061 257.489 290.061C259.031 290.061 256.938 293.796 254.47 292.646ZM255.979 291.907C256.102 291.134 255.747 290.736 256.281 290.431C256.423 291.144 256.058 291.409 255.979 291.907Z" fill="#FFBF00" stroke="black" stroke-width="0.405" stroke-miterlimit="9.8213"/>
<path d="M248.429 290.8C246.794 291.103 244.986 288.282 246.616 287.476C248.194 286.696 250.274 289.748 248.429 290.8Z" stroke="black" stroke-width="0.405" stroke-miterlimit="9.8213" stroke-linecap="square"/>
<path d="M247.221 289.692C247.262 288.909 247.116 288.452 247.523 287.845C247.668 288.65 247.326 289.1 247.221 289.692Z" stroke="black" stroke-width="0.405" stroke-miterlimit="9.8213" stroke-linecap="square"/>
<path d="M254.47 292.646C253.445 289.532 255.963 290.061 257.49 290.061C259.031 290.061 256.938 293.796 254.47 292.646Z" stroke="black" stroke-width="0.405" stroke-miterlimit="9.8213" stroke-linecap="square"/>
<path d="M255.979 291.907C256.102 291.134 255.747 290.736 256.281 290.431C256.423 291.144 256.058 291.409 255.979 291.907Z" stroke="black" stroke-width="0.405" stroke-miterlimit="9.8213" stroke-linecap="square"/>
<path fill-rule="evenodd" clip-rule="evenodd" d="M206.751 369.717C202.423 361.779 196.311 355.763 193.038 346.758C190.282 339.177 188.062 328.949 189.995 320.669C192.041 311.908 196.314 301.622 204.033 298.812C210.667 296.396 219.077 297.754 222.758 305.459C222.96 302.649 217.687 293.564 217.775 293.457C220.43 290.209 224.583 294.675 227.288 295.488C227.079 294.138 226.357 293.032 225.476 292.164L225.778 291.795C227.322 293.069 230.199 296.637 231.819 296.965C231.498 296.413 231.288 295.247 230.912 294.749C233.958 295.651 236.361 300.751 239.066 302.874C240.233 303.79 241.901 303.83 242.993 304.72C244.454 305.912 244.201 305.911 244.201 308.414L244.503 308.044C245.401 309.254 246.801 309.863 247.221 311.737L247.522 311.368C246.985 312.381 246.785 313.49 246.919 314.692C247.3 314.963 247.275 314.394 247.522 314.322V315.431C247.975 314.395 248.451 314.293 249.033 313.584C248.951 315.526 251.08 316.964 252.053 316.908C251.985 319.559 255.613 320.814 256.583 323.186V322.447C258.419 323.226 258.45 325.239 258.093 327.248C257.955 326.773 257.694 326.531 257.489 326.14C257.835 328.035 256.955 331.152 255.375 332.787C255.597 332.31 255.769 331.796 255.979 331.311C254.548 333.295 252.757 334.936 250.543 335.003L250.845 334.634C247.375 336.156 244.477 333.128 242.238 330.387C240.066 327.73 237.579 328.045 239.217 332.049C241.363 337.294 245.178 344.695 248.58 348.852C249.802 350.346 251.035 352.222 252.355 353.838C253.29 354.982 255.498 358.892 252.355 357.161H252.959C251.602 356.905 250.74 355.866 249.939 356.053C249.331 355.614 248.364 355.704 247.825 354.207C244.863 356.001 236.76 341.153 234.536 338.697C230.397 334.121 224.98 327.703 231.203 321.996C232.452 320.851 236.345 312.47 234.989 310.814C233.291 308.741 230.931 312.683 229.704 314.692C228.816 316.147 225.368 324.067 223.966 322.816C222.859 321.829 224.154 312.163 223.06 309.891C223.06 316.932 221.211 321.79 219.738 328.356L219.436 327.618C218.542 329.912 217.554 331.723 215.812 333.157L216.114 332.418C214.407 335.805 207.219 337.741 207.959 341.651C208.416 344.063 212.279 346.22 213.547 348.114C215.412 350.901 217.136 353.561 219.738 355.315C218.699 355.03 217.642 354.829 216.718 355.315L217.02 355.684C216.131 356.12 214.305 355.685 214.302 355.684C213.653 356.215 213.483 355.759 213.094 356.791C209.123 353.611 201.419 350.521 199.654 344.051C198.384 339.395 201.128 338.047 202.674 334.264C203.572 332.066 202.05 330.807 201.919 330.202C201.546 328.475 201.47 326.537 201.919 324.663C199.028 327.948 197.608 321.575 196.181 323.555C194.763 325.523 196.671 336.64 197.087 339.435C198.138 343.354 200.842 349.55 203.127 354.207L203.429 353.468C205.395 357.365 208.519 360.06 211.13 363.254C212.534 364.971 218.181 368.24 220.19 368.24C224.231 368.24 228.312 369.374 231.969 366.393C232.921 365.618 240.492 361.72 238.16 366.393L238.462 366.024C239.076 371.257 229.913 373.666 226.684 374.518C219.554 376.398 213.119 373.111 206.751 369.717ZM260.51 343.496C258.958 340.967 255.618 335.736 258.396 332.786C258.49 333.314 259.099 334.227 259.302 335.002C259.958 333.564 259.413 331.895 259.224 330.27C258.926 327.724 260.397 327.314 260.51 325.031C260.637 325.13 260.476 325.649 260.811 325.031C262.053 329.262 262.322 332.282 262.322 336.664C262.322 339.686 265.594 342.009 265.946 344.974C263.669 342.448 262.426 345.766 260.51 343.496ZM242.691 282.563C242.216 280.47 241.358 270.38 243.899 270.006C245.713 269.739 250.363 278.271 252.053 279.238C250.53 279.26 248.244 281.787 247.523 279.608C247.877 279.693 247.918 280.046 248.429 279.977C248.179 279.461 248.043 279.031 247.825 278.5C248.205 278.894 248.682 279.178 249.033 279.608C248.966 278.269 245.13 272.138 243.295 271.853C243.295 275.14 242.406 278.905 243.899 281.824V281.085C244.216 281.624 244.54 282.312 244.805 282.931C244.461 282.67 244.213 282.515 243.899 282.193L244.201 283.301C243.845 282.705 243.608 282.639 243.295 281.824C243.345 282.431 243.226 283.066 243.295 283.67C242.991 283.339 242.926 282.944 242.691 282.563ZM258.698 298.073C257.503 297.249 257.494 295.862 256.734 294.934C256.031 294.073 255.098 294.651 253.865 294.01L254.167 294.379C253.214 293.903 252.864 292.916 253.261 291.795V292.533C253.443 291.73 253.726 291.179 253.865 290.317L254.167 290.687C254.456 290.241 254.576 289.618 254.771 289.209L254.47 289.579C254.44 288.202 254.289 287.219 254.167 285.886L253.866 286.255C253.852 284.775 254.115 283.4 254.772 282.192C253.685 282.829 252.702 284.914 252.657 285.147C252.734 286.527 252.706 287.905 252.355 289.209L252.054 288.84C251.723 290.318 250.964 291.479 250.544 292.902L251.148 292.164C250.586 293.907 249.324 294.46 249.336 296.596C247.568 294.204 249.911 291.49 250.996 288.84C252.392 285.434 250.674 283.193 253.715 280.716C256.01 278.845 259.438 282.025 261.114 279.977C262.248 278.591 264.475 277.184 265.946 276.284C266.61 275.878 269.202 272.963 269.57 272.96C273.664 272.936 267.316 289.352 266.701 291.609C265.944 294.389 264.808 299.716 262.02 300.658C260.503 301.17 257.986 298.133 258.698 298.073ZM258.395 291.056C257.715 293.744 255.455 293.477 253.865 292.534C254.52 290.184 256.797 288.782 258.395 291.056ZM264.134 285.517C264.246 284.951 264.126 284.577 264.435 284.039C264.235 284.243 263.989 284.524 263.832 284.778C264.046 283.949 264.117 283.074 264.435 282.192C264.058 282.709 263.582 283.131 263.228 283.67C263.448 283.141 263.58 282.418 263.832 281.824C263.526 282.367 263.168 282.797 262.926 283.301C262.66 279.268 267.326 276.171 269.872 274.807C270.111 278.499 269.031 283.769 266.248 285.517C266.423 284.966 266.433 284.577 266.55 284.039C265.897 285.112 265.696 285.115 264.738 285.517C264.967 285.149 265.008 285.285 265.04 284.778C264.771 285.146 264.475 285.272 264.134 285.517Z" fill="#666666" stroke="black" stroke-width="0.405" stroke-miterlimit="9.8213"/>
<path d="M206.751 369.717C202.423 361.779 196.311 355.763 193.038 346.758C190.282 339.177 188.062 328.949 189.995 320.669C192.041 311.908 196.314 301.622 204.033 298.812C210.667 296.396 219.077 297.754 222.758 305.459C222.96 302.649 217.687 293.564 217.775 293.457C220.43 290.209 224.583 294.675 227.288 295.488C227.079 294.138 226.357 293.032 225.476 292.164L225.778 291.795C227.322 293.069 230.199 296.637 231.819 296.965C231.498 296.413 231.288 295.247 230.912 294.749C233.958 295.651 236.361 300.751 239.066 302.874C240.233 303.79 241.901 303.83 242.993 304.72C244.454 305.912 244.201 305.911 244.201 308.414L244.503 308.044C245.401 309.254 246.801 309.863 247.221 311.737L247.522 311.368C246.985 312.381 246.785 313.49 246.919 314.692C247.3 314.963 247.275 314.394 247.522 314.322V315.431C247.975 314.395 248.451 314.293 249.033 313.584C248.951 315.526 251.079 316.964 252.053 316.908C251.985 319.559 255.613 320.814 256.583 323.186V322.447C258.419 323.226 258.45 325.239 258.093 327.248C257.955 326.773 257.694 326.531 257.489 326.14C257.835 328.035 256.955 331.152 255.375 332.787C255.597 332.31 255.769 331.796 255.979 331.311C254.548 333.295 252.757 334.936 250.543 335.003L250.845 334.634C247.375 336.156 244.477 333.128 242.238 330.387C240.066 327.73 237.579 328.045 239.217 332.049C241.363 337.294 245.178 344.695 248.58 348.852C249.802 350.346 251.035 352.222 252.355 353.838C253.29 354.982 255.498 358.892 252.355 357.161H252.959C251.602 356.905 250.74 355.866 249.939 356.053C249.331 355.614 248.364 355.704 247.825 354.207C244.863 356.001 236.76 341.153 234.536 338.697C230.397 334.121 224.98 327.703 231.203 321.996C232.452 320.851 236.345 312.469 234.989 310.814C233.291 308.741 230.931 312.683 229.704 314.692C228.816 316.147 225.368 324.067 223.966 322.816C222.859 321.829 224.154 312.163 223.06 309.891C223.06 316.932 221.211 321.79 219.738 328.356L219.436 327.618C218.542 329.912 217.554 331.723 215.812 333.157L216.114 332.418C214.407 335.805 207.219 337.741 207.959 341.651C208.416 344.063 212.279 346.22 213.547 348.113C215.412 350.901 217.135 353.561 219.738 355.315C218.699 355.03 217.642 354.829 216.718 355.315L217.02 355.684C216.131 356.12 214.305 355.685 214.302 355.684C213.653 356.215 213.483 355.759 213.094 356.791C209.123 353.611 201.419 350.521 199.654 344.051C198.384 339.395 201.128 338.047 202.674 334.264C203.572 332.066 202.05 330.807 201.919 330.202C201.546 328.475 201.47 326.537 201.919 324.663C199.028 327.948 197.608 321.575 196.181 323.555C194.763 325.523 196.671 336.64 197.087 339.435C198.138 343.354 200.842 349.55 203.127 354.207L203.429 353.468C205.395 357.365 208.519 360.06 211.13 363.254C212.534 364.971 218.181 368.24 220.19 368.24C224.231 368.24 228.312 369.374 231.969 366.393C232.921 365.617 240.492 361.72 238.16 366.393L238.462 366.024C239.076 371.257 229.913 373.666 226.684 374.518C219.554 376.398 213.119 373.111 206.751 369.717Z" stroke="black" stroke-width="0.405" stroke-miterlimit="9.8213" stroke-linecap="square"/>
<path d="M260.51 343.496C258.958 340.967 255.618 335.736 258.396 332.786C258.49 333.315 259.099 334.227 259.302 335.002C259.958 333.564 259.413 331.895 259.224 330.27C258.926 327.724 260.397 327.314 260.51 325.031C260.637 325.13 260.476 325.649 260.811 325.031C262.053 329.262 262.322 332.282 262.322 336.664C262.322 339.686 265.594 342.009 265.946 344.974C263.669 342.448 262.426 345.766 260.51 343.496Z" stroke="black" stroke-width="0.405" stroke-miterlimit="9.8213" stroke-linecap="square"/>
<path d="M242.691 282.563C242.216 280.47 241.358 270.38 243.899 270.006C245.713 269.739 250.363 278.271 252.053 279.238C250.53 279.26 248.244 281.787 247.523 279.608C247.877 279.693 247.918 280.046 248.429 279.977C248.179 279.461 248.043 279.031 247.825 278.5C248.205 278.894 248.682 279.178 249.033 279.608C248.966 278.269 245.13 272.138 243.295 271.853C243.295 275.14 242.406 278.905 243.899 281.824V281.085C244.216 281.624 244.54 282.312 244.805 282.931C244.461 282.67 244.213 282.515 243.899 282.193L244.201 283.301C243.845 282.705 243.608 282.639 243.295 281.824C243.345 282.431 243.226 283.066 243.295 283.67C242.991 283.339 242.926 282.944 242.691 282.563Z" stroke="black" stroke-width="0.405" stroke-miterlimit="9.8213" stroke-linecap="square"/>
<path d="M258.698 298.073C257.503 297.249 257.494 295.862 256.734 294.934C256.031 294.073 255.098 294.651 253.865 294.01L254.167 294.379C253.214 293.903 252.864 292.916 253.261 291.795V292.533C253.443 291.73 253.726 291.179 253.865 290.317L254.167 290.687C254.456 290.241 254.576 289.618 254.771 289.209L254.47 289.579C254.44 288.202 254.289 287.219 254.167 285.886L253.866 286.255C253.852 284.775 254.115 283.4 254.772 282.192C253.685 282.829 252.702 284.914 252.657 285.147C252.734 286.527 252.706 287.905 252.355 289.209L252.054 288.84C251.723 290.318 250.964 291.479 250.544 292.902L251.148 292.164C250.586 293.907 249.324 294.46 249.336 296.596C247.568 294.204 249.911 291.49 250.996 288.84C252.392 285.434 250.674 283.193 253.715 280.716C256.01 278.845 259.438 282.025 261.114 279.977C262.248 278.591 264.475 277.184 265.946 276.284C266.61 275.878 269.202 272.963 269.57 272.96C273.664 272.936 267.316 289.352 266.701 291.609C265.944 294.389 264.808 299.716 262.02 300.658C260.503 301.17 257.986 298.133 258.698 298.073Z" stroke="black" stroke-width="0.405" stroke-miterlimit="9.8213" stroke-linecap="square"/>
<path d="M258.395 291.056C257.715 293.744 255.455 293.477 253.865 292.534C254.52 290.184 256.797 288.782 258.395 291.056Z" stroke="black" stroke-width="0.405" stroke-miterlimit="9.8213" stroke-linecap="square"/>
<path d="M264.134 285.517C264.246 284.951 264.126 284.577 264.435 284.039C264.235 284.243 263.989 284.524 263.832 284.778C264.046 283.949 264.117 283.074 264.435 282.192C264.058 282.709 263.582 283.131 263.228 283.67C263.448 283.141 263.58 282.418 263.832 281.824C263.526 282.367 263.168 282.797 262.926 283.301C262.66 279.268 267.326 276.171 269.872 274.807C270.111 278.499 269.031 283.769 266.248 285.517C266.423 284.966 266.433 284.577 266.55 284.039C265.897 285.112 265.696 285.115 264.738 285.517C264.967 285.149 265.008 285.285 265.04 284.778C264.771 285.146 264.475 285.272 264.134 285.517Z" stroke="black" stroke-width="0.405" stroke-miterlimit="9.8213" stroke-linecap="square"/>
<path fill-rule="evenodd" clip-rule="evenodd" d="M219.436 363.069C218.688 361.075 217.417 359.823 215.963 358.638C214.861 357.74 211.608 356.377 214.302 355.683C214.306 355.684 216.131 356.12 217.02 355.683L216.718 355.314C219.877 353.582 225.887 359.504 227.288 363.069C224.744 361.37 221.19 367.962 219.436 363.069ZM249.335 363.069C250.714 360.011 247.517 356.587 246.315 354.206C247.609 353.973 248.377 355.304 249.335 355.314C250.188 356.056 251.412 356.868 252.96 357.161H252.355C253.595 357.844 254.382 357.34 254.167 355.683C257.08 356.823 257.931 361.053 255.828 363.623C253.922 365.953 250.95 362.465 249.335 363.069ZM242.993 336.849C243.449 333.695 247.638 335.387 246.315 338.327C245.858 338.187 245.007 338.035 244.201 337.957C245.065 337.827 245.173 337.273 245.711 336.849C244.853 336.365 243.848 336.317 242.993 336.849ZM260.207 349.405C262.596 351.059 261.181 344.984 260.509 343.496C262.337 345.66 263.668 342.753 265.946 344.974V344.235C271.808 349.653 261.941 355.305 260.207 349.405ZM244.201 305.089C245.573 305.199 247.428 303.498 248.58 304.905C249.423 305.933 252.668 303.132 253.865 303.243C253.433 303.192 249.156 301.945 249.033 301.766C248.039 300.324 248.37 298.833 249.939 298.811C249.041 298.464 247.661 296.475 248.429 294.749C248.744 295.29 249.294 296.457 249.637 297.334C250.571 296.551 251.004 296.072 252.053 295.857C251.932 294.711 251.254 293.947 250.241 293.641C250.717 293.172 250.697 292.807 251.147 292.163L250.543 292.902C251.094 291.556 251.664 290.267 252.053 288.84L252.355 289.209C252.705 287.905 252.733 286.526 252.656 285.147C252.702 284.914 253.684 282.829 254.771 282.192C254.114 283.4 253.852 284.774 253.865 286.255L254.167 285.885C254.288 287.219 254.439 288.202 254.469 289.579L254.771 289.209C254.575 289.617 254.455 290.241 254.167 290.686L253.865 290.317C253.726 291.178 253.443 291.73 253.261 292.533V291.794C252.864 292.916 253.214 293.903 254.167 294.379L253.865 294.01C255.098 294.651 256.03 294.073 256.734 294.933C257.493 295.862 257.502 297.248 258.697 298.072H258.093C261.052 300.114 260.857 302.101 264.133 298.442C262.069 301.534 264.184 307.039 265.039 310.259C264.87 309.751 264.605 309.29 264.435 308.782C264.455 310.081 264.549 311.23 264.737 312.475L264.435 311.737C264.691 312.564 264.799 313.479 265.039 314.322C264.843 314.07 264.636 313.83 264.435 313.583C264.577 314.552 264.544 315.584 264.737 316.538L264.435 315.799C264.701 318.31 263.134 322.683 261.717 323.185C261.265 324.148 260.554 325.007 260.509 325.031C260.252 326.452 259.238 328.014 258.697 327.986C258.252 329.043 257.761 330.003 257.187 330.94V330.202L256.583 330.94C257.05 328.711 257.841 328.367 257.489 326.139C257.711 326.627 257.95 326.717 258.093 327.247C258.441 325.291 258.406 323.136 256.583 322.446V323.185C255.626 320.845 251.988 319.476 252.053 316.906C251.079 316.963 248.951 315.525 249.033 313.583C248.451 314.292 247.975 314.394 247.522 315.43V314.321C247.275 314.393 247.3 314.962 246.918 314.691C246.785 313.489 246.984 312.38 247.522 311.367L247.22 311.736C246.837 310.023 245.046 308.234 244.2 308.413C244.201 307.306 244.201 306.197 244.201 305.089Z" fill="#FFFFEB" stroke="black" stroke-width="0.405" stroke-miterlimit="9.8213"/>
<path d="M219.436 363.07C218.689 361.076 217.417 359.824 215.963 358.639C214.862 357.742 211.609 356.378 214.302 355.685C214.306 355.686 216.131 356.121 217.02 355.685L216.718 355.315C219.877 353.584 225.887 359.506 227.289 363.071C224.744 361.372 221.19 367.964 219.436 363.07Z" stroke="black" stroke-width="0.405" stroke-miterlimit="9.8213" stroke-linecap="square"/>
<path d="M249.336 363.07C250.714 360.013 247.518 356.588 246.316 354.208C247.61 353.974 248.378 355.306 249.336 355.315C250.189 356.057 251.413 356.869 252.96 357.162H252.356C253.596 357.845 254.383 357.342 254.168 355.684C257.081 356.824 257.932 361.055 255.829 363.624C253.923 365.954 250.951 362.466 249.336 363.07Z" stroke="black" stroke-width="0.405" stroke-miterlimit="9.8213" stroke-linecap="square"/>
<path d="M242.994 336.848C243.45 333.695 247.638 335.386 246.316 338.326C245.859 338.186 245.008 338.034 244.202 337.956C245.066 337.826 245.174 337.272 245.712 336.848C244.854 336.364 243.848 336.316 242.994 336.848Z" stroke="black" stroke-width="0.405" stroke-miterlimit="9.8213" stroke-linecap="square"/>
<path d="M260.206 349.404C262.595 351.059 261.18 344.983 260.509 343.496C262.336 345.659 263.667 342.752 265.945 344.973V344.234C271.807 349.652 261.941 355.304 260.206 349.404Z" stroke="black" stroke-width="0.405" stroke-miterlimit="9.8213" stroke-linecap="square"/>
<path d="M244.201 305.089C245.573 305.199 247.428 303.498 248.58 304.905C249.423 305.933 252.668 303.132 253.865 303.243C253.433 303.192 249.156 301.945 249.033 301.766C248.039 300.324 248.37 298.833 249.939 298.811C249.041 298.464 247.661 296.475 248.429 294.749C248.744 295.29 249.294 296.457 249.637 297.334C250.571 296.551 251.004 296.072 252.053 295.857C251.932 294.711 251.254 293.947 250.241 293.641C250.717 293.172 250.697 292.807 251.147 292.163L250.543 292.902C251.094 291.556 251.664 290.267 252.053 288.84L252.355 289.209C252.705 287.905 252.733 286.526 252.656 285.147C252.702 284.914 253.684 282.829 254.771 282.192C254.114 283.4 253.852 284.774 253.865 286.255L254.167 285.885C254.288 287.219 254.439 288.202 254.469 289.579L254.771 289.209C254.575 289.617 254.455 290.241 254.167 290.686L253.865 290.317C253.726 291.178 253.443 291.73 253.261 292.533V291.794C252.864 292.916 253.214 293.903 254.167 294.379L253.865 294.01C255.098 294.651 256.03 294.073 256.734 294.933C257.493 295.862 257.502 297.248 258.697 298.072H258.093C261.052 300.114 260.857 302.101 264.133 298.442C262.069 301.534 264.184 307.039 265.039 310.259C264.87 309.751 264.605 309.29 264.435 308.782C264.454 310.081 264.549 311.23 264.737 312.475L264.435 311.737C264.691 312.564 264.799 313.479 265.039 314.322C264.843 314.07 264.636 313.83 264.435 313.583C264.577 314.552 264.544 315.584 264.737 316.538L264.435 315.799C264.701 318.31 263.134 322.683 261.717 323.185C261.265 324.148 260.554 325.007 260.509 325.031C260.252 326.452 259.238 328.014 258.697 327.986C258.252 329.043 257.761 330.003 257.187 330.94V330.202L256.583 330.94C257.05 328.711 257.841 328.367 257.489 326.139C257.711 326.627 257.95 326.717 258.093 327.247C258.441 325.291 258.406 323.136 256.583 322.446V323.185C255.626 320.845 251.988 319.476 252.053 316.906C251.079 316.963 248.951 315.525 249.033 313.583C248.451 314.292 247.975 314.394 247.522 315.43V314.321C247.275 314.393 247.3 314.962 246.918 314.691C246.785 313.489 246.984 312.38 247.522 311.367L247.22 311.736C246.837 310.023 245.046 308.234 244.2 308.413C244.201 307.306 244.201 306.197 244.201 305.089Z" stroke="black" stroke-width="0.405" stroke-miterlimit="9.8213" stroke-linecap="square"/>
</g>
<path d="M101.159 125.592L120.946 125.592L140.733 125.592C140.733 142.253 140.733 158.915 140.733 175.576C127.542 175.576 114.35 175.576 101.159 175.576C101.159 158.915 101.159 142.253 101.159 125.592Z" fill="black"/>
<path d="M35.1323 21.2346L121.236 21.2349L207.339 21.2351C207.339 58.5623 207.339 95.8895 207.339 133.217C149.937 133.217 92.5346 133.217 35.1322 133.217C35.1323 95.8896 35.1323 58.5621 35.1323 21.2346Z" fill="black"/>
<path d="M39.5022 26.2886L121.236 26.2889L202.969 26.289C202.969 60.0443 202.969 93.7996 202.969 127.555C148.48 127.555 93.9912 127.555 39.5021 127.555C39.5021 93.7995 39.5022 60.0441 39.5022 26.2886Z" fill="white"/>
<path d="M72.7259 170.102L120.946 170.102L169.166 170.102C169.166 172.66 169.166 175.218 169.166 177.776C137.019 177.776 104.873 177.776 72.7258 177.776C72.7258 175.218 72.7258 172.66 72.7259 170.102Z" fill="black"/>
<path d="M124.274 135.526C124.274 135.714 124.121 135.866 123.933 135.866C123.745 135.866 123.593 135.714 123.593 135.526C123.593 135.338 123.745 135.185 123.933 135.185C124.121 135.185 124.274 135.338 124.274 135.526Z" fill="#FCE9EA"/>
<path d="M108.744 333.703L112.526 351.343C105.865 352.677 101.228 353.361 98.6147 353.396C96.2156 353.584 92.8203 353.174 88.4288 352.166L90.3193 326.698L108.744 333.703Z" fill="black"/>
<path d="M153.333 332.023L155.778 352.342C150.929 353.776 147.347 354.467 145.033 354.414C142.603 354.481 139.213 353.838 134.862 352.487L138.015 334.47L153.333 332.023Z" fill="black"/>
<path d="M112.021 254.584L111.598 296.058L111.174 337.532L88.4729 337.862C85.4188 310.148 82.3647 282.434 79.3106 254.721L112.021 254.584Z" fill="#406B8B" fill-opacity="0.996078"/>
<path d="M132.852 253.82L133.832 295.941L134.812 338.062C142.644 338.017 150.476 337.972 158.308 337.927C161.519 309.323 164.73 280.718 167.941 252.114L132.852 253.82Z" fill="#406B8B" fill-opacity="0.996078"/>
<path d="M-0.111099 178.269L124.105 178.269L248.322 178.27C248.322 181.418 248.322 184.567 248.322 187.715C165.511 187.715 82.6998 187.716 -0.111099 187.716C-0.111099 184.567 -0.111099 181.418 -0.111099 178.269Z" fill="white" fill-opacity="0.996078"/>
<path d="M64.4801 148.709V182.723C72.0921 187.211 79.7042 191.7 87.3162 196.188C84.2478 182.428 81.1794 168.669 78.1109 154.909L64.4801 148.709Z" fill="#FFBFAF" fill-opacity="0.996078"/>
<path d="M180.149 141.947V175.962C172.537 180.45 164.924 184.938 157.312 189.426C160.381 175.666 163.449 161.907 166.518 148.147L180.149 141.947Z" fill="#FFBFAF" fill-opacity="0.996078"/>
<path d="M27.3546 187.407L32.6048 187.407L37.8549 187.407C37.8549 242.751 37.8549 298.095 37.8549 353.439C34.3548 353.44 30.8547 353.44 27.3546 353.44C27.3546 298.095 27.3546 242.751 27.3546 187.407Z" fill="white" fill-opacity="0.996078"/>
<path d="M218.986 187.407L224.236 187.407L229.486 187.407C229.486 242.751 229.486 298.095 229.486 353.439C225.986 353.44 222.486 353.44 218.986 353.44C218.986 298.096 218.986 242.751 218.986 187.407Z" fill="white" fill-opacity="0.996078"/>
<path d="M169.562 195.014L176.131 195.015L182.699 195.015C182.699 216.614 182.699 238.213 182.699 259.811C178.32 259.812 173.941 259.812 169.562 259.812C169.562 238.213 169.562 216.614 169.562 195.014Z" fill="#222B32"/>
<path d="M61.8424 194.231L68.411 194.231L74.9797 194.231C74.9797 215.83 74.9797 237.429 74.9797 259.028C70.6006 259.028 66.2215 259.028 61.8424 259.028C61.8424 237.429 61.8424 215.83 61.8424 194.231Z" fill="#222B32"/>
<path d="M171.262 356.418L170.822 357.359C168.735 359.255 162.629 360.772 152.503 361.909C142.307 363.045 130.301 363.506 116.484 363.291C103.298 362.991 92.7521 362.113 84.8463 360.656C82.3131 360.186 80.2266 359.673 78.5867 359.118L76.5192 358.262C75.3834 357.673 74.8091 357.058 74.7963 356.418C75.1411 354.452 79.8502 352.817 88.9234 351.512C97.9967 350.208 109.365 349.53 123.029 349.481C136.693 349.53 148.062 350.208 157.135 351.512C166.209 352.817 170.918 354.452 171.262 356.418Z" fill="black"/>
<path d="M176.489 252.447L175.995 255.482C174.332 259.28 171.643 262.299 167.929 264.54C164.829 266.587 160.514 268.524 154.984 270.35C144.284 273.675 131.755 275.124 117.398 274.696C102.457 273.99 90.4345 271.388 81.33 266.89C80.5879 266.678 79.1231 265.856 76.9355 264.424L74.5769 262.719C73.1314 261.578 71.9397 260.427 71.0017 259.266C69.1258 256.943 68.2651 254.582 68.4194 252.182C68.9212 245.961 74.2073 240.797 84.2776 236.688C94.7224 232.37 107.447 230.167 122.452 230.08C136.527 230.138 148.914 232.162 159.614 236.149C170.429 240.449 176.054 245.882 176.489 252.447Z" fill="black" fill-opacity="0.996078"/>
<path d="M133.422 332.5L146.572 332.5L159.721 332.5C159.721 334.511 159.721 336.522 159.721 338.532C150.955 338.532 142.188 338.532 133.422 338.533C133.422 336.522 133.422 334.511 133.422 332.5Z" fill="#234B69" fill-opacity="0.996078"/>
<path d="M87.4217 333.651L99.9969 333.651L112.572 333.651C112.572 335.637 112.572 337.623 112.572 339.609C104.189 339.609 95.8052 339.61 87.4217 339.61C87.4217 337.623 87.4217 335.637 87.4217 333.651Z" fill="#234B69" fill-opacity="0.996078"/>
<path d="M22.9501 99.3944C22.9501 99.3947 22.9501 99.3941 22.9501 99.3944V99.3944Z" fill="#234B69" fill-opacity="0.996078"/>
<path d="M117.373 264.55L123.029 264.551L128.686 264.551C128.686 295.714 128.686 326.877 128.686 358.04C124.915 358.04 121.144 358.04 117.373 358.04C117.373 326.877 117.373 295.714 117.373 264.55Z" fill="black"/>
<path d="M17.1158 153.338L29.4894 153.338L41.8629 153.338C41.8629 161.587 41.8629 169.836 41.8629 178.085C33.6139 178.085 25.3648 178.085 17.1158 178.086C17.1158 169.836 17.1158 161.587 17.1158 153.338Z" fill="black"/>
<path d="M10.2542 159.443L21.666 159.443C22.3296 159.443 22.8676 159.981 22.8676 160.645V172.056C22.8676 172.72 22.3296 173.258 21.666 173.258L10.2542 173.258C9.93548 173.258 9.62982 173.132 9.40446 172.906C9.1791 172.681 9.05249 172.375 9.05249 172.057V160.644C9.05249 160.326 9.1791 160.02 9.40446 159.795C9.62982 159.569 9.93548 159.443 10.2542 159.443ZM10.2541 161.846L11.4558 160.644V172.057L10.2541 170.855L21.6659 170.855L20.4643 172.056V160.645L21.6659 161.847L10.2541 161.846Z" fill="black"/>
<path d="M57.0585 227.865L120.868 227.865L184.677 227.866C184.677 233.5 184.677 239.134 184.677 244.769C142.137 244.769 99.598 244.769 57.0585 244.769C57.0585 239.135 57.0585 233.5 57.0585 227.865Z" fill="black"/>
<path d="M54.527 40.2038L190.513 40.2042V53.3375L54.527 53.3379V40.2038Z" fill="#FFDA3E" fill-opacity="0.701961"/>
<path d="M112.927 59.603L183.529 59.6034V91.8728L112.927 91.8733V59.603Z" fill="#C9D6DE" fill-opacity="0.701961"/>
<path d="M63.9997 61.5817L97.6013 61.5821V109.504L63.9997 109.504V61.5817Z" fill="#C9D6DE" fill-opacity="0.701961"/>
<path d="M103.995 81.7179L104.1 83.1254C104.646 89.3439 104.593 93.9444 103.941 96.9271C103.435 99.6725 101.664 102.491 98.629 105.383L140.017 99.4058C135.502 97.6315 132.625 95.4279 131.388 92.7953C129.969 90.474 128.86 85.2467 128.063 77.1134L103.995 81.7179Z" fill="#FFBFAF" fill-opacity="0.996078"/>
<path d="M98.4796 74.5559L98.46 75.4705C98.2609 77.3201 97.5108 78.8247 96.2098 79.9843C94.8995 81.1433 93.3201 81.6581 91.4716 81.5288C89.7035 81.3131 88.263 80.5222 87.1499 79.1561C86.7932 78.7144 86.4941 78.2292 86.2527 77.7006L85.9419 76.8829C85.7663 76.3185 85.6643 75.7262 85.636 75.1057C85.6004 73.1995 86.1595 71.5882 87.3134 70.272C88.4673 68.9558 89.9529 68.2347 91.77 68.1088C93.5913 68.0789 95.1331 68.6704 96.3952 69.8832C97.6574 71.096 98.3522 72.6535 98.4796 74.5559Z" fill="#FFBFAF" fill-opacity="0.996078"/>
<path d="M140.754 70.2893L140.735 71.204C140.536 73.0536 139.786 74.5582 138.485 75.7178C137.174 76.8768 135.595 77.3917 133.746 77.2624C131.978 77.0467 130.538 76.2558 129.425 74.8896C128.312 73.5137 127.814 71.8586 127.93 69.9245C128.13 68.0749 128.88 66.5703 130.181 65.4108C131.491 64.2517 133.07 63.7369 134.919 63.8662C136.687 64.0819 138.127 64.8728 139.24 66.2389C139.597 66.6806 139.896 67.1658 140.138 67.6944L140.449 68.5122C140.624 69.0765 140.726 69.6689 140.754 70.2893Z" fill="#FFBFAF" fill-opacity="0.996078"/>
<path d="M140.406 93.7625L98.4096 97.886C85.8989 104.26 77.3557 109.255 72.6689 112.724C67.8158 116.316 64.4144 120.264 62.3857 124.629C60.0751 129.602 57.5878 137.49 56.8672 151.047L78.5987 160.71L80.7167 168.573C87.5041 193.774 83.4561 216.601 79.3015 240.107L159.088 240.509C156.625 234.537 155.619 214.915 155.139 206.302C154.244 190.275 160.183 156.982 160.183 156.982L182.409 148.845C181.883 142.138 181.358 136.992 180.898 133.398C179.34 121.235 176.281 113.331 171.886 109.427C170.013 107.764 167.834 106.121 165.11 104.754L149.769 98.7387C147.141 97.598 144.022 95.9401 140.41 93.765L140.406 93.7625Z" fill="#E04D69"/>
<path d="M104.18 56.8163C103.621 56.8194 103.141 57.0137 102.74 57.3993C102.349 57.7921 102.147 58.2688 102.134 58.8294C102.138 59.3899 102.332 59.8691 102.715 60.2668C103.108 60.6582 103.584 60.8607 104.143 60.8742C104.702 60.8719 105.183 60.6783 105.584 60.2934C105.976 59.901 106.178 59.4246 106.192 58.864C106.188 58.3033 105.995 57.8238 105.613 57.4255C105.22 57.0337 104.745 56.8307 104.186 56.8163H104.18Z" fill="white"/>
<path d="M103.878 56.8076C103.615 56.8079 103.422 56.8397 103.298 56.9029L102.089 57.7078L102.77 57.4577C102.69 57.8991 102.671 58.2643 102.713 58.5532C102.752 58.8787 102.86 59.229 103.036 59.604C103.476 60.4879 103.933 60.9318 104.407 60.9357C104.632 60.9329 104.828 60.8373 104.994 60.6489C105.154 60.455 105.242 60.214 105.26 59.9258C105.312 59.4615 105.102 58.5701 104.628 57.2514L104.674 56.9346L105.387 56.8906C104.649 56.8313 104.147 56.8036 103.883 56.8076H103.878Z" fill="black"/>
<path d="M103.184 53.327C102.447 53.5356 101.692 54.1545 100.92 55.1835L106.939 54.1451L106.876 54.1142L106.242 53.8498C106.016 53.7585 105.816 53.6814 105.64 53.6185C105.296 53.4943 104.98 53.4007 104.694 53.3377C104.119 53.2094 103.616 53.2056 103.186 53.3263L103.184 53.327Z" fill="black"/>
<path d="M92.9622 59.0124C92.4027 59.0154 91.9226 59.2095 91.5216 59.5948C91.1307 59.9878 90.9288 60.4646 90.9159 61.0252C90.9204 61.5859 91.1141 62.065 91.4969 62.4626C91.89 62.8538 92.3659 63.0562 92.9246 63.0699C93.4841 63.0676 93.9646 62.8741 94.3662 62.4892C94.7575 62.0966 94.96 61.6201 94.9736 61.0595C94.9699 60.499 94.7769 60.0196 94.3945 59.6213C94.0022 59.2296 93.5267 59.0266 92.968 59.0124H92.9622Z" fill="white"/>
<path d="M92.6599 59.0033C92.3971 59.0036 92.204 59.0355 92.0806 59.0989L90.8708 59.9036L91.5521 59.6539C91.4725 60.0951 91.4533 60.4602 91.4946 60.7491C91.5342 61.0745 91.6421 61.4246 91.8183 61.7995C92.2579 62.6839 92.7149 63.1278 93.1893 63.1313C93.4144 63.1288 93.6101 63.0333 93.7763 62.8448C93.9358 62.6509 94.0246 62.4099 94.0424 62.1216C94.0945 61.6572 93.8838 60.7657 93.4101 59.4471L93.4567 59.1307L94.1693 59.0864C93.4304 59.0272 92.9291 58.9995 92.6654 59.0033H92.6599Z" fill="black"/>
<path d="M91.9661 55.523C91.2286 55.7316 90.474 56.3505 89.7023 57.3797L95.7214 56.341L95.658 56.3099L95.0236 56.0456C94.7983 55.9546 94.5979 55.8776 94.4224 55.8145C94.0776 55.6901 93.7621 55.5964 93.4759 55.5335C92.9006 55.4052 92.3981 55.4014 91.9683 55.5221L91.9661 55.523Z" fill="black"/>
<path d="M128.214 38.8654L129.495 39.2013C132.134 39.7578 134.433 40.8324 136.393 42.4249C137.021 42.994 137.574 43.6783 138.051 44.4777L138.697 45.7847C139.085 46.7207 139.369 47.815 139.55 49.0676C140.368 55.6606 138.843 64.8495 134.974 76.6341C133.844 79.7324 132.644 82.2871 131.374 84.2984C130.737 85.3117 130.072 86.2147 129.381 87.0076C129.079 87.5146 127.965 88.5014 126.04 89.9681C120.14 93.3448 114.498 94.3501 109.113 92.984C102.3 91.3563 96.1365 84.9347 90.6219 73.719C88.6036 69.4489 87.1842 65.0857 86.3637 60.6294C85.5472 56.1754 85.6504 52.1009 86.6736 48.4061C87.2037 46.5874 87.9339 44.9005 88.864 43.3456L90.3699 41.1166C91.4607 39.6981 92.6728 38.4205 94.0062 37.2838C95.3397 36.1472 96.742 35.1575 98.2131 34.3148C98.9413 33.7006 101.172 32.7823 104.905 31.5599C108.353 30.6561 111.746 30.6597 115.083 31.5706C118.819 32.5997 123.196 35.0313 128.214 38.8654Z" fill="#6B2725"/>
<path d="M69.9825 137.029L123.029 137.029L176.076 137.029C176.076 177.072 176.076 217.114 176.076 257.157C140.712 257.157 105.347 257.157 69.9825 257.157C69.9825 217.115 69.9825 177.072 69.9825 137.029Z" fill="black"/>
</g>
<defs>
<clipPath id="clip0_58_23">
<rect width="276" height="394" fill="white"/>
</clipPath>
<clipPath id="clip1_58_23">
<rect width="86" height="105.066" fill="white" transform="translate(185 270)"/>
</clipPath>
</defs>
</svg>
